<?xml version="1.0" encoding="UTF-8" standalone="no"?>
<!-- Created with Inkscape (http://www.inkscape.org/) -->

<svg
   xmlns:dc="http://purl.org/dc/elements/1.1/"
   xmlns:cc="http://creativecommons.org/ns#"
   xmlns:rdf="http://www.w3.org/1999/02/22-rdf-syntax-ns#"
   xmlns:svg="http://www.w3.org/2000/svg"
   xmlns="http://www.w3.org/2000/svg"
   xmlns:sodipodi="http://sodipodi.sourceforge.net/DTD/sodipodi-0.dtd"
   xmlns:inkscape="http://www.inkscape.org/namespaces/inkscape"
   width="500px"
   height="500px"
   viewBox="0 0 500 500"
   version="1.1"
   id="SVGRoot"
   inkscape:version="0.92.2 (5c3e80d, 2017-08-06)"
   sodipodi:docname="circle.svg">
  <sodipodi:namedview
     id="base"
     pagecolor="#ffffff"
     bordercolor="#666666"
     borderopacity="1.0"
     inkscape:pageopacity="0.0"
     inkscape:pageshadow="2"
     inkscape:zoom="1.024"
     inkscape:cx="283.43074"
     inkscape:cy="253.30957"
     inkscape:document-units="px"
     inkscape:current-layer="bitonieaux"
     showgrid="false"
     inkscape:window-width="1920"
     inkscape:window-height="1017"
     inkscape:window-x="-8"
     inkscape:window-y="-8"
     inkscape:window-maximized="1"
     inkscape:snap-nodes="false" />
  <defs
     id="defs831" />
  <metadata
     id="metadata834">
    <rdf:RDF>
      <cc:Work
         rdf:about="">
        <dc:format>image/svg+xml</dc:format>
        <dc:type
           rdf:resource="http://purl.org/dc/dcmitype/StillImage" />
        <dc:title></dc:title>
      </cc:Work>
    </rdf:RDF>
  </metadata>
  <g
     id="layer1"
     inkscape:groupmode="layer"
     inkscape:label="Calque 1">
    <g
       id="g1800"
       transform="matrix(0.37870368,0,0,0.37870368,0.65223864,42.471088)">
      <g
         id="bitonieaux">
        <g
           id="g1421">
          <path
             id="path1397"
             d="m 720.3,1041.7 c 8.4,1.7 16.8,-4.9 16.3,-13.4 -1.3,-21.1 -2.9,-42.3 -4.6,-63.4 -0.7,-7.9 -7.2,-13.1 -14.7,-12.5 -7.6,0.6 -13.1,6.6 -12.6,14.6 1.3,20.9 2.9,41.8 4.6,62.6 0.5,6.3 5,10.9 11,12.1 z m 60.3,-101.6 c -12.2,-2.5 -20.7,5.7 -18.7,15.6 4.2,20.6 8.7,41 13.3,61.5 1.7,7.4 8.9,11.6 16.2,10.1 7.1,-1.5 12.3,-8.4 10.7,-15.8 -4.2,-20.7 -8.8,-41.3 -13.4,-61.9 -1.3,-5.5 -5.1,-8.9 -8.1,-9.5 z m 68.2,63.7 c 10.3,2.1 18.9,-7.2 15.8,-17.5 -1.1,-3.7 -2.6,-7.4 -4,-11 -5.8,-15.9 -11.6,-31.8 -17.6,-47.6 -2.9,-7.6 -10.6,-11.2 -17.7,-8.6 -7.1,2.5 -11,10.1 -8.3,17.4 7.1,19.7 14.4,39.4 21.7,59 1.7,4.6 5.2,7.4 10.1,8.3 z m 82.6,-149.2 c -0.2,0.3 -0.5,0.6 -0.7,0.8 -8,-1.7 -14.5,2.5 -16.2,10.5 -0.9,4.3 0.2,8 2.7,11.4 11.9,16.3 23.8,32.6 35.8,48.9 5,6.7 13.3,8.2 19.6,3.7 6.4,-4.6 7.6,-13.2 2.6,-20.1 -11.8,-16.2 -23.6,-32.5 -35.6,-48.5 -2.1,-2.7 -5.4,-4.5 -8.2,-6.7 z M 867,901.3 c 0.8,3.3 1.1,6.9 2.6,9.8 9.2,17.7 18.7,35.2 28.2,52.7 4.3,7.9 12.3,10.6 19.4,6.7 7,-3.9 9,-12.1 4.8,-20 -5.2,-9.7 -10.3,-19.3 -15.5,-28.9 -4.4,-8.1 -8.7,-16.4 -13.2,-24.4 -3.1,-5.5 -8.8,-8 -14.5,-7.1 -5.7,1.1 -9.6,5 -11.8,11.2 z m 88.9,-76.2 c -1,3.7 0.1,7.9 3.4,11.4 14.5,15 28.9,30.1 43.7,44.8 2.3,2.3 6.3,3.7 9.7,4 5.9,0.5 10.3,-2.8 12.6,-8.2 2.3,-5.5 1.2,-10.8 -3,-15.2 -10,-10.3 -20,-20.6 -30,-30.9 -4.4,-4.5 -8.7,-9 -13.1,-13.4 -3.9,-3.8 -8.7,-5.2 -14,-3.5 -5,1.6 -8,5 -9.3,11 z m 51.9,-58 c -6.8,-1.1 -12.7,1.4 -15.4,6.9 -3,5.9 -1.6,12.7 3.5,17 2.5,2.1 5.1,4 7.7,6 13.7,10.6 27.3,21.3 41.1,31.8 6.9,5.3 15.8,4 20.3,-2.6 4.2,-6.2 3,-14 -3.2,-18.9 -16,-12.5 -32.1,-25 -48.2,-37.3 -1.8,-1.2 -3.9,-1.9 -5.8,-2.9 z m 11.9,-40.4 c -1.2,5.9 1.1,11.4 6.6,14.6 17.9,10.3 35.9,20.6 53.9,30.7 6.6,3.7 14.7,1.5 18.4,-4.8 3.8,-6.5 2.1,-14.6 -4.5,-18.5 -18.3,-10.7 -36.7,-21.3 -55.2,-31.5 -8.1,-4.4 -17.4,0.6 -19.2,9.5 z m 38,-65.1 c -2.2,0 -4.4,-0.4 -6.5,0 -6.1,1 -10.1,5.8 -10.8,12.2 -0.6,5.8 3,11.4 9.2,14 18.2,7.4 36.4,14.7 54.7,21.8 4.1,1.6 8.5,2.8 12.9,0.7 5.7,-2.7 8,-7.5 7.9,-13.3 -0.1,-6.1 -3.8,-10.1 -9.3,-12.3 -9.5,-3.8 -19.1,-7.7 -28.6,-11.5 -9.8,-3.9 -19.6,-7.7 -29.5,-11.6 z m 1.5,-105 c -1.8,8.4 4.2,15.8 12.8,16.5 8.9,0.7 17.8,1.7 26.8,2.6 11.6,1.1 23.3,2.5 34.9,3.3 7.5,0.6 13.6,-5.2 14.1,-12.7 0.4,-7.1 -5.4,-13.7 -12.6,-14.4 -19.7,-2 -39.3,-3.9 -58.9,-6 -9.2,-0.8 -15.5,3.1 -17.1,10.7 z m 17.5,49.3 v 0 c -2.2,-0.4 -4.3,-0.8 -6.5,-1.3 -7.8,-1.6 -14.3,2.5 -15.9,9.9 -1.7,8 2.4,14.5 10.4,16.4 11.8,2.9 23.5,5.9 35.2,8.8 8.2,2 16.4,4.2 24.7,5.9 7,1.5 14,-2.7 15.8,-9 2.2,-7.9 -0.9,-14.9 -8.7,-17 -18.4,-4.7 -36.7,-9.1 -55,-13.7 z"
             inkscape:connector-curvature="0" />
          <path
             id="path1399"
             d="m 720.3,1041.7 c -6,-1.2 -10.5,-5.8 -11,-12.1 -1.7,-20.9 -3.3,-41.7 -4.6,-62.6 -0.5,-8 5,-13.9 12.6,-14.6 7.5,-0.6 14,4.6 14.7,12.5 1.8,21.1 3.3,42.2 4.6,63.4 0.6,8.5 -7.8,15.1 -16.3,13.4 z"
             class="st1"
             inkscape:connector-curvature="0"
             style="fill:#4e460d;enable-background:new" />
          <path
             id="path1401"
             d="m 780.6,940.1 c 3,0.7 6.9,4.1 8.1,9.6 4.6,20.6 9.2,41.2 13.4,61.9 1.5,7.4 -3.6,14.3 -10.7,15.8 -7.3,1.5 -14.5,-2.7 -16.2,-10.1 -4.6,-20.5 -9.1,-41 -13.3,-61.5 -2,-10 6.5,-18.2 18.7,-15.7 z"
             class="st1"
             inkscape:connector-curvature="0"
             style="fill:#4e460d;enable-background:new" />
          <path
             id="path1403"
             d="m 848.8,1003.8 c -4.9,-0.9 -8.4,-3.7 -10.1,-8.3 -7.3,-19.6 -14.6,-39.3 -21.7,-59 -2.6,-7.4 1.3,-14.9 8.3,-17.4 7.1,-2.5 14.9,1 17.7,8.6 6,15.8 11.8,31.8 17.6,47.6 1.3,3.7 2.9,7.3 4,11 3,10.3 -5.5,19.6 -15.8,17.5 z"
             class="st2"
             inkscape:connector-curvature="0"
             style="fill:#3f3912;enable-background:new" />
          <path
             id="path1405"
             d="m 931.4,854.6 c 2.7,2.2 6.1,4 8.1,6.7 12.1,16 23.8,32.3 35.6,48.5 5,6.9 3.8,15.5 -2.6,20.1 -6.3,4.5 -14.6,3 -19.6,-3.7 -12,-16.2 -23.9,-32.6 -35.8,-48.9 -2.5,-3.4 -3.6,-7.1 -2.7,-11.4 1.7,-8 8.2,-12.2 16.2,-10.5 0.4,-0.3 0.6,-0.5 0.8,-0.8 z"
             class="st3"
             inkscape:connector-curvature="0"
             style="fill:#3f3910;enable-background:new" />
          <path
             id="path1407"
             d="m 867,901.3 c 2.2,-6.2 6.1,-10.1 11.8,-11.1 5.7,-1 11.4,1.6 14.5,7.1 4.5,8.1 8.8,16.3 13.2,24.4 5.2,9.6 10.4,19.3 15.5,28.9 4.2,7.9 2.2,16.1 -4.8,20 -7,3.9 -15.1,1.2 -19.4,-6.7 -9.5,-17.5 -19,-35.1 -28.2,-52.7 -1.5,-3 -1.8,-6.6 -2.6,-9.9 z"
             class="st4"
             inkscape:connector-curvature="0"
             style="fill:#3c3a14;enable-background:new" />
          <path
             id="path1409"
             d="m 955.9,825.1 c 1.3,-6 4.4,-9.3 9.2,-10.9 5.3,-1.7 10.1,-0.4 14,3.5 4.5,4.4 8.8,8.9 13.1,13.4 10,10.3 20,20.6 30,30.9 4.2,4.4 5.3,9.7 3,15.2 -2.2,5.4 -6.7,8.7 -12.6,8.2 -3.4,-0.3 -7.4,-1.7 -9.7,-4 -14.8,-14.7 -29.3,-29.7 -43.7,-44.8 -3.3,-3.6 -4.3,-7.8 -3.3,-11.5 z"
             class="st5"
             inkscape:connector-curvature="0"
             style="fill:#343013;enable-background:new" />
          <path
             id="path1411"
             d="m 1007.8,767.1 c 1.9,1 4.1,1.7 5.8,3 16.1,12.4 32.2,24.8 48.2,37.3 6.2,4.9 7.4,12.6 3.2,18.9 -4.5,6.6 -13.4,7.9 -20.3,2.6 -13.7,-10.5 -27.4,-21.2 -41.1,-31.8 -2.6,-2 -5.2,-3.9 -7.7,-6 -5.1,-4.4 -6.5,-11.1 -3.5,-17 2.7,-5.5 8.5,-8.1 15.4,-7 z"
             class="st6"
             inkscape:connector-curvature="0"
             style="fill:#343014;enable-background:new" />
          <path
             id="path1413"
             d="m 1019.7,726.7 c 1.8,-8.9 11.2,-13.9 19.2,-9.4 18.6,10.2 36.9,20.8 55.2,31.5 6.6,3.9 8.2,12 4.5,18.5 -3.6,6.3 -11.8,8.5 -18.4,4.8 -18,-10.2 -36,-20.4 -53.9,-30.7 -5.6,-3.4 -7.8,-8.8 -6.6,-14.7 z"
             class="st6"
             inkscape:connector-curvature="0"
             style="fill:#343014;enable-background:new" />
          <path
             id="path1415"
             d="m 1057.7,661.6 c 9.9,3.9 19.7,7.7 29.5,11.6 9.6,3.8 19.1,7.6 28.6,11.5 5.6,2.2 9.2,6.2 9.3,12.3 0.1,5.8 -2.3,10.6 -7.9,13.3 -4.5,2.1 -8.8,0.9 -12.9,-0.7 -18.3,-7.1 -36.5,-14.5 -54.7,-21.8 -6.3,-2.5 -9.8,-8.2 -9.2,-14 0.7,-6.4 4.7,-11.2 10.8,-12.2 2,-0.5 4.3,-0.1 6.5,0 z"
             class="st7"
             inkscape:connector-curvature="0"
             style="fill:#363019;enable-background:new" />
          <path
             id="path1417"
             d="m 1059.2,556.6 c 1.6,-7.6 8,-11.6 17,-10.6 19.6,2 39.3,4 58.9,6 7.3,0.7 13.1,7.3 12.6,14.4 -0.5,7.5 -6.5,13.2 -14.1,12.7 -11.7,-0.9 -23.3,-2.2 -34.9,-3.3 -8.9,-0.9 -17.8,-1.9 -26.8,-2.6 -8.5,-0.7 -14.5,-8.2 -12.7,-16.6 z"
             class="st8"
             inkscape:connector-curvature="0"
             style="fill:#25221b;enable-background:new" />
          <path
             id="path1419"
             d="m 1076.7,605.9 c 18.3,4.6 36.7,9 54.9,13.9 7.8,2.1 10.9,9.1 8.7,17 -1.7,6.3 -8.8,10.5 -15.8,9 -8.3,-1.8 -16.5,-3.9 -24.7,-5.9 -11.8,-2.9 -23.5,-5.9 -35.2,-8.8 -7.9,-2 -12.1,-8.4 -10.4,-16.4 1.6,-7.4 8.1,-11.5 15.9,-9.9 2.2,0.4 4.3,0.9 6.5,1.4 0,-0.2 0.1,-0.2 0.1,-0.3 z"
             class="st9"
             inkscape:connector-curvature="0"
             style="fill:#252317;enable-background:new" />
        </g>
        <g
           id="g1497">
          <path
             id="path1423"
             d="m 704.9,47.3 c -7.7,-3.8 -17.5,0.3 -19.2,8.7 -4.2,20.8 -8.2,41.6 -12,62.4 -1.4,7.8 3.6,14.6 11,15.9 7.5,1.3 14.4,-3 16,-10.8 4.1,-20.5 8,-41.1 11.8,-61.7 1,-6.2 -2.1,-11.8 -7.6,-14.5 z m -84.6,82.5 c 11.1,5.5 21.4,-0.2 22.1,-10.2 1.3,-20.9 2.3,-41.9 3.1,-62.8 0.3,-7.6 -5.5,-13.5 -13,-14 -7.3,-0.5 -14,4.9 -14.5,12.4 -1.3,21.1 -2.2,42.1 -3.1,63.2 -0.2,5.7 2.7,10 5.4,11.4 z M 571,50.6 c -9.4,-4.7 -20.1,2.1 -19.8,12.8 0.1,3.9 0.6,7.8 1,11.7 1.5,16.9 3,33.7 4.6,50.6 0.8,8.1 7.3,13.5 14.9,12.9 7.5,-0.6 13.2,-6.9 12.6,-14.7 -1.7,-20.9 -3.7,-41.8 -5.7,-62.6 -0.5,-5 -3.1,-8.6 -7.6,-10.7 z M 452.4,173.3 c 0.3,-0.2 0.6,-0.4 0.9,-0.6 7.3,3.7 14.7,1.3 18.4,-5.9 2,-3.9 1.9,-7.7 0.3,-11.7 -7.3,-18.8 -14.5,-37.7 -21.9,-56.5 -3.1,-7.8 -10.7,-11.4 -18,-8.6 -7.3,2.8 -10.7,10.8 -7.7,18.7 7.2,18.7 14.4,37.5 21.8,56.1 1.4,3 4.2,5.6 6.2,8.5 z m 74.4,-28.5 c 0,-3.4 0.7,-6.9 0,-10.2 -4.3,-19.5 -9,-38.9 -13.6,-58.3 -2.1,-8.7 -9.2,-13.4 -17,-11.5 -7.8,1.9 -11.9,9.3 -9.8,18 2.5,10.7 5,21.3 7.5,32 2.1,9 4.1,18 6.4,27 1.6,6.1 6.4,10 12.2,10.6 5.8,0.6 10.6,-2.1 14.3,-7.6 z m -105.6,50.6 c 1.9,-3.3 2,-7.7 -0.3,-11.8 -10.1,-18.3 -20.1,-36.5 -30.6,-54.6 -1.7,-2.8 -5.1,-5.3 -8.3,-6.4 -5.5,-2 -10.7,0 -14.3,4.6 -3.7,4.7 -4,10.1 -1,15.4 7,12.5 14,25.1 20.9,37.6 3.1,5.5 6,11 9.2,16.4 2.8,4.7 7.1,7.3 12.7,7 5.1,-0.3 8.9,-2.7 11.7,-8.2 z m -65.1,42.5 c 6.3,2.8 12.6,1.9 16.7,-2.7 4.4,-5 4.8,-11.8 1,-17.4 -1.9,-2.7 -3.9,-5.2 -5.9,-7.8 -10.5,-13.8 -20.9,-27.6 -31.4,-41.4 -5.3,-6.9 -14.2,-8 -20.3,-2.8 -5.6,4.9 -6.5,12.7 -1.8,19 12.2,16.2 24.5,32.4 36.8,48.5 1.4,1.9 3.2,3.2 4.9,4.6 z m -22,36 c 2.7,-5.4 1.9,-11.3 -2.6,-15.8 -14.6,-14.6 -29.3,-29.2 -44.1,-43.7 -5.4,-5.3 -13.9,-5.2 -19,-0.1 -5.3,5.3 -5.8,13.6 -0.5,19 14.9,15.1 29.9,30.1 45.2,44.7 6.6,6.4 16.9,4.1 21,-4.1 z M 280.5,327 c 2.1,0.6 4.2,1.5 6.3,1.7 6.1,0.6 11.3,-3 13.6,-9 2.1,-5.5 0.1,-11.8 -5.3,-15.9 -15.7,-11.8 -31.4,-23.6 -47.2,-35.3 -3.5,-2.6 -7.4,-4.9 -12.3,-4 -6.2,1.1 -9.7,5.1 -11.1,10.8 -1.5,5.9 1,10.7 5.8,14.3 8.2,6.2 16.4,12.4 24.7,18.5 8.4,6.3 16.9,12.5 25.5,18.9 z m -28.7,100.9 c 3.9,-7.6 0,-16.4 -8.1,-19.2 -8.5,-3 -16.8,-6.3 -25.2,-9.5 -10.9,-4.1 -21.8,-8.4 -32.9,-12.2 -7.1,-2.5 -14.5,1.5 -16.9,8.6 -2.3,6.8 1.6,14.6 8.5,17.2 18.5,7 36.9,14 55.4,21 8.5,3.2 15.7,1.1 19.2,-5.9 z m -4.1,-52.1 c 0,0 0,-0.1 0.1,-0.1 2,1 3.9,2 5.9,3 7.1,3.5 14.4,1.3 17.9,-5.4 3.8,-7.3 1.4,-14.6 -5.7,-18.6 -10.6,-5.8 -21.1,-11.8 -31.7,-17.7 -7.4,-4.1 -14.8,-8.3 -22.3,-12.1 -6.4,-3.3 -14.3,-1 -17.6,4.6 -4.2,7.1 -3,14.6 4,18.7 16.3,9.4 32.9,18.4 49.4,27.6 z m -18.2,149.5 c -2.3,-0.5 -4.5,-1.2 -6.8,-1.4 -13.4,-1.2 -26.7,-2.3 -40.1,-3.4 -7,-0.6 -14,-1.4 -21,-1.7 -6.2,-0.2 -11.6,4.2 -12.9,9.9 -1.5,6.9 0.7,12.8 7,15.1 5,1.8 10.6,2.3 16,2.8 16.7,1.6 33.5,2.9 50.2,4.2 7,0.5 13.1,-3.7 14.7,-9.8 1.5,-6.4 -1.3,-12.3 -7.1,-15.7 z m 2.1,-59 c -2.1,-0.5 -6.1,-1.5 -10.2,-2.5 -17,-3.9 -34,-7.8 -51,-11.6 -7.7,-1.7 -14.9,2.9 -16.4,10.1 -1.5,7.5 2.8,14.3 10.6,16.1 6.7,1.6 13.4,3.1 20.2,4.7 13.5,3 26.9,6.2 40.4,9 7.1,1.5 13.5,-2.7 15.6,-9.4 1.7,-6.2 -1.2,-12.4 -9.2,-16.4 z"
             inkscape:connector-curvature="0" />
          <path
             id="path1425"
             d="m 620.3,129.8 c -2.7,-1.4 -5.6,-5.7 -5.4,-11.4 0.9,-21.1 1.8,-42.2 3.1,-63.2 0.4,-7.5 7.2,-12.9 14.5,-12.4 7.4,0.5 13.3,6.4 13,14 -0.8,21 -1.8,41.9 -3.1,62.8 -0.6,10 -10.9,15.7 -22.1,10.2 z"
             class="st10"
             inkscape:connector-curvature="0"
             style="fill:#d9c101;enable-background:new" />
          <path
             id="path1427"
             d="m 571,50.6 c 4.5,2.1 7.1,5.8 7.6,10.6 2,20.9 4,41.7 5.7,62.6 0.6,7.8 -5.1,14.1 -12.6,14.7 -7.6,0.6 -14.1,-4.8 -14.9,-12.9 -1.7,-16.8 -3.1,-33.7 -4.6,-50.6 -0.4,-3.9 -0.9,-7.8 -1,-11.7 -0.3,-10.6 10.3,-17.4 19.8,-12.7 z"
             class="st10"
             inkscape:connector-curvature="0"
             style="fill:#d9c101;enable-background:new" />
          <path
             id="path1429"
             d="m 452.4,173.3 c -2.1,-2.8 -4.8,-5.4 -6.1,-8.6 -7.5,-18.6 -14.7,-37.4 -21.8,-56.1 -3,-7.9 0.4,-16 7.7,-18.7 7.2,-2.7 14.9,0.9 18,8.6 7.4,18.8 14.6,37.7 21.9,56.5 1.5,3.9 1.7,7.8 -0.3,11.7 -3.7,7.3 -11.1,9.7 -18.4,5.9 -0.4,0.2 -0.7,0.4 -1,0.7 z"
             class="st11"
             inkscape:connector-curvature="0"
             style="fill:#ceb901;enable-background:new" />
          <path
             id="path1431"
             d="m 526.8,144.8 c -3.8,5.5 -8.5,8.2 -14.2,7.7 -5.8,-0.5 -10.6,-4.5 -12.2,-10.6 -2.3,-9 -4.3,-18 -6.4,-27 -2.5,-10.7 -5,-21.3 -7.5,-32 -2,-8.7 2,-16.1 9.8,-18 7.8,-1.9 14.9,2.8 17,11.5 4.6,19.4 9.2,38.8 13.6,58.3 0.7,3.2 0,6.7 -0.1,10.1 z"
             class="st11"
             inkscape:connector-curvature="0"
             style="fill:#ceb901;enable-background:new" />
          <path
             id="path1433"
             d="m 421.2,195.4 c -2.8,5.5 -6.7,7.9 -11.7,8.1 -5.6,0.3 -9.9,-2.2 -12.7,-7 -3.2,-5.4 -6.2,-10.9 -9.2,-16.4 -7,-12.5 -14,-25 -20.9,-37.6 -3,-5.3 -2.6,-10.7 1,-15.4 3.6,-4.6 8.7,-6.7 14.3,-4.6 3.2,1.2 6.7,3.6 8.3,6.4 10.5,18 20.5,36.3 30.6,54.6 2.3,4.2 2.2,8.6 0.3,11.9 z"
             class="st12"
             inkscape:connector-curvature="0"
             style="fill:#c1ae02;enable-background:new" />
          <path
             id="path1435"
             d="m 356.1,237.9 c -1.6,-1.5 -3.5,-2.7 -4.8,-4.4 -12.3,-16.1 -24.6,-32.3 -36.8,-48.5 -4.7,-6.3 -3.8,-14.1 1.8,-19 6,-5.2 15,-4.1 20.3,2.8 10.5,13.7 21,27.6 31.4,41.4 2,2.6 4,5.1 5.9,7.8 3.8,5.5 3.4,12.4 -1,17.4 -4.2,4.4 -10.5,5.3 -16.8,2.5 z"
             class="st13"
             inkscape:connector-curvature="0"
             style="fill:#c5ac02;enable-background:new" />
          <path
             id="path1437"
             d="m 334.1,273.9 c -4.1,8.2 -14.4,10.5 -21,4.1 -15.3,-14.7 -30.3,-29.7 -45.2,-44.7 -5.4,-5.4 -4.8,-13.7 0.5,-19 5.2,-5.1 13.6,-5.2 19,0.1 14.8,14.5 29.4,29 44.1,43.7 4.5,4.6 5.3,10.4 2.6,15.8 z"
             class="st14"
             inkscape:connector-curvature="0"
             style="fill:#bea300;enable-background:new" />
          <path
             id="path1439"
             d="m 280.5,327 c -8.6,-6.3 -17.1,-12.6 -25.5,-18.9 -8.2,-6.1 -16.5,-12.3 -24.7,-18.5 -4.8,-3.6 -7.3,-8.4 -5.8,-14.3 1.4,-5.6 4.9,-9.7 11.1,-10.8 4.9,-0.9 8.8,1.4 12.3,4 15.8,11.6 31.5,23.5 47.2,35.3 5.4,4.1 7.4,10.4 5.3,15.9 -2.3,6 -7.5,9.6 -13.6,9 -2.2,-0.2 -4.2,-1.1 -6.3,-1.7 z"
             class="st15"
             inkscape:connector-curvature="0"
             style="fill:#b9a501;enable-background:new" />
          <path
             id="path1441"
             d="m 251.8,427.9 c -3.5,6.9 -10.7,9.1 -19.1,5.9 -18.5,-7 -36.9,-14 -55.4,-21 -6.8,-2.6 -10.8,-10.4 -8.5,-17.2 2.4,-7.1 9.7,-11.1 16.9,-8.6 11,3.8 21.9,8.1 32.9,12.2 8.4,3.2 16.7,6.5 25.2,9.5 8.1,2.8 11.9,11.6 8,19.2 z"
             class="st16"
             inkscape:connector-curvature="0"
             style="fill:#ae9800;enable-background:new" />
          <path
             id="path1443"
             d="m 247.7,375.8 c -16.5,-9.2 -33.1,-18.2 -49.4,-27.6 -7,-4.1 -8.2,-11.6 -4,-18.7 3.3,-5.6 11.2,-7.8 17.6,-4.6 7.5,3.8 14.9,8 22.3,12.1 10.6,5.9 21.1,11.8 31.7,17.7 7.2,3.9 9.5,11.3 5.7,18.6 -3.5,6.8 -10.8,9 -17.9,5.4 -2,-1 -4,-2 -5.9,-3 0,0 -0.1,0 -0.1,0.1 z"
             class="st17"
             inkscape:connector-curvature="0"
             style="fill:#b49f00;enable-background:new" />
          <path
             id="path1445"
             d="m 229.5,525.3 c 5.9,3.4 8.7,9.3 7.1,15.7 -1.5,6.1 -7.6,10.4 -14.7,9.8 -16.7,-1.3 -33.5,-2.7 -50.2,-4.2 -5.4,-0.5 -11,-0.9 -16,-2.8 -6.4,-2.3 -8.6,-8.2 -7,-15.1 1.3,-5.6 6.7,-10.1 12.9,-9.9 7,0.3 14,1.1 21,1.7 13.4,1.1 26.7,2.2 40.1,3.4 2.2,0.2 4.5,0.9 6.8,1.4 z"
             class="st18"
             inkscape:connector-curvature="0"
             style="fill:#9f9000;enable-background:new" />
          <path
             id="path1447"
             d="m 231.6,466.3 c 8.1,4 10.9,10.2 9,16.5 -2,6.7 -8.5,10.9 -15.6,9.4 -13.5,-2.8 -27,-6 -40.4,-9 -6.7,-1.5 -13.5,-3.1 -20.2,-4.7 -7.7,-1.8 -12.1,-8.6 -10.6,-16.1 1.5,-7.3 8.7,-11.8 16.4,-10.1 17,3.8 34,7.7 51,11.6 4.2,0.9 8.3,1.9 10.4,2.4 z"
             class="st19"
             inkscape:connector-curvature="0"
             style="fill:#9a9300;enable-background:new" />
          <path
             id="path1449"
             d="m 158.8,586.6 c -5.4,9 0.5,20.2 11.2,20.8 3.9,0.2 7.8,0 11.7,0 16.9,-0.2 33.9,-0.3 50.8,-0.7 8.1,-0.2 14,-6.2 14,-13.8 0,-7.5 -5.8,-13.7 -13.6,-13.7 -21,0.1 -41.9,0.4 -62.9,0.7 -4.9,0.1 -8.7,2.4 -11.2,6.7 z"
             inkscape:connector-curvature="0" />
          <path
             id="path1451"
             d="m 271.8,714.5 c -0.2,-0.3 -0.4,-0.6 -0.6,-0.9 4.3,-7 2.5,-14.5 -4.5,-18.8 -3.7,-2.3 -7.6,-2.5 -11.6,-1.3 -19.3,5.8 -38.7,11.5 -58,17.4 -8,2.4 -12.2,9.8 -10,17.2 2.2,7.5 9.9,11.6 18.1,9.1 19.2,-5.7 38.5,-11.4 57.6,-17.4 3.2,-1 6,-3.5 9,-5.3 z"
             inkscape:connector-curvature="0" />
          <path
             id="path1453"
             d="m 249.4,638.1 c -3.4,-0.3 -6.9,-1.3 -10.1,-0.8 -19.7,2.8 -39.4,5.9 -59.1,8.9 -8.8,1.4 -14.1,8.1 -12.8,16 1.3,7.9 8.4,12.6 17.2,11.2 10.8,-1.6 21.6,-3.3 32.5,-5 9.1,-1.4 18.3,-2.7 27.4,-4.3 6.2,-1.1 10.5,-5.6 11.5,-11.3 0.9,-5.6 -1.5,-10.5 -6.6,-14.7 z"
             inkscape:connector-curvature="0" />
          <path
             id="path1455"
             d="m 291.5,747.3 c -3.2,-2.2 -7.5,-2.6 -11.8,-0.6 -19,8.6 -38,17.2 -56.8,26.2 -3,1.4 -5.6,4.7 -7.1,7.8 -2.5,5.4 -0.8,10.7 3.5,14.6 4.4,4 9.7,4.8 15.3,2.3 13.1,-5.9 26.1,-11.9 39.1,-17.9 5.7,-2.6 11.4,-5.1 17,-7.9 4.9,-2.4 7.8,-6.5 8,-12.1 0.1,-5.1 -2,-9.1 -7.2,-12.4 z"
             inkscape:connector-curvature="0" />
          <path
             id="path1457"
             d="m 328.7,815.6 c 3.3,-6.1 2.9,-12.4 -1.4,-16.8 -4.6,-4.8 -11.4,-5.8 -17.2,-2.4 -2.8,1.6 -5.5,3.5 -8.2,5.2 -14.6,9.3 -29.2,18.6 -43.7,28.1 -7.3,4.7 -9.1,13.6 -4.3,20 4.5,6 12.2,7.5 18.8,3.3 17.2,-10.9 34.2,-21.9 51.3,-32.9 1.7,-1.2 3.1,-3 4.7,-4.5 z"
             inkscape:connector-curvature="0" />
          <path
             id="path1459"
             d="m 362.9,840.4 c -5.2,-3.1 -11.1,-2.8 -16,1.4 -15.7,13.4 -31.4,26.9 -47,40.5 -5.8,5 -6.3,13.4 -1.6,18.9 4.8,5.7 13.1,6.9 18.9,2 16.2,-13.7 32.3,-27.4 48.2,-41.5 6.8,-6.2 5.3,-16.6 -2.5,-21.3 z"
             inkscape:connector-curvature="0" />
          <path
             id="path1461"
             d="m 411.5,898 c 0.8,-2 1.9,-4 2.2,-6.1 1,-6.1 -2.1,-11.5 -7.9,-14.3 -5.3,-2.5 -11.8,-1 -16.3,4 -13,14.7 -26,29.4 -38.9,44.3 -2.9,3.3 -5.4,7 -5,11.9 0.6,6.2 4.4,10.1 9.9,11.9 5.8,1.9 10.8,-0.2 14.7,-4.7 6.8,-7.7 13.6,-15.4 20.4,-23.1 7,-7.9 13.9,-15.9 20.9,-23.9 z"
             inkscape:connector-curvature="0" />
          <path
             id="path1463"
             d="m 509.9,934.5 c -7.3,-4.5 -16.3,-1.3 -19.8,6.5 -3.6,8.2 -7.6,16.2 -11.4,24.4 -5,10.6 -10.1,21.1 -14.8,31.8 -3,6.9 0.4,14.6 7.3,17.5 6.6,2.8 14.7,-0.5 17.8,-7.1 8.4,-17.9 16.9,-35.7 25.3,-53.6 3.8,-8.1 2.2,-15.5 -4.4,-19.5 z"
             inkscape:connector-curvature="0" />
          <path
             id="path1465"
             d="m 457.6,934.5 c 0,0 -0.1,0 -0.1,-0.1 1.2,-1.9 2.3,-3.8 3.5,-5.7 4.1,-6.8 2.5,-14.3 -4,-18.3 -6.9,-4.3 -14.5,-2.6 -18.9,4.3 -6.7,10.1 -13.4,20.2 -20.1,30.3 -4.7,7.1 -9.4,14.1 -13.9,21.3 -3.7,6.1 -2.1,14.1 3.2,17.9 6.7,4.7 14.3,4.1 18.9,-2.5 10.7,-15.6 20.9,-31.5 31.4,-47.2 z"
             inkscape:connector-curvature="0" />
          <path
             id="path1467"
             d="m 605.2,964.4 c -0.7,2.2 -1.5,4.4 -1.9,6.7 -2.2,13.2 -4.4,26.5 -6.5,39.7 -1.1,6.9 -2.5,13.9 -3.3,20.8 -0.7,6.2 3.3,11.9 8.8,13.6 6.7,2.1 12.8,0.3 15.6,-5.8 2.2,-4.9 3.1,-10.4 4,-15.7 2.9,-16.6 5.5,-33.1 8.1,-49.7 1.1,-7 -2.7,-13.4 -8.7,-15.4 -6.1,-2.1 -12.3,0.3 -16.1,5.8 z"
             inkscape:connector-curvature="0" />
          <path
             id="path1469"
             d="m 546.6,957.7 c -0.7,2.1 -2,6 -3.3,10 -5.2,16.7 -10.5,33.3 -15.6,50 -2.3,7.6 1.7,15.1 8.8,17.2 7.4,2.1 14.5,-1.7 16.9,-9.2 2.1,-6.6 4.2,-13.1 6.2,-19.7 4.1,-13.2 8.3,-26.3 12.2,-39.6 2,-6.9 -1.7,-13.7 -8.2,-16.3 -6,-2.5 -12.4,-0.1 -17,7.6 z"
             inkscape:connector-curvature="0" />
          <path
             id="path1471"
             d="m 158.8,586.6 c 2.5,-4.3 6.3,-6.7 11.2,-6.7 21,-0.3 41.9,-0.7 62.9,-0.7 7.8,0 13.6,6.2 13.6,13.7 0,7.6 -5.9,13.7 -14,13.8 -16.9,0.4 -33.9,0.5 -50.8,0.7 -3.9,0 -7.8,0.3 -11.7,0 -10.6,-0.6 -16.6,-11.7 -11.2,-20.8 z"
             class="st20"
             inkscape:connector-curvature="0"
             style="fill:#968400;enable-background:new" />
          <path
             id="path1473"
             d="m 271.8,714.5 c -3,1.8 -5.8,4.4 -9,5.4 -19.1,6 -38.4,11.7 -57.6,17.4 -8.1,2.4 -15.9,-1.6 -18.1,-9.1 -2.1,-7.4 2,-14.8 10,-17.2 19.3,-5.9 38.7,-11.6 58,-17.4 4.1,-1.2 7.9,-1.1 11.6,1.3 6.9,4.3 8.8,11.8 4.5,18.8 0.3,0.1 0.4,0.4 0.6,0.8 z"
             class="st21"
             inkscape:connector-curvature="0"
             style="fill:#8a7c01;enable-background:new" />
          <path
             id="path1475"
             d="m 249.4,638.1 c 5.1,4.2 7.5,9.1 6.5,14.8 -1,5.7 -5.3,10.2 -11.5,11.3 -9.1,1.6 -18.3,2.9 -27.4,4.3 -10.8,1.7 -21.6,3.3 -32.5,5 -8.8,1.3 -15.9,-3.3 -17.2,-11.2 -1.3,-7.9 3.9,-14.6 12.8,-16 19.7,-3.1 39.4,-6.1 59.1,-8.9 3.3,-0.6 6.8,0.4 10.2,0.7 z"
             class="st22"
             inkscape:connector-curvature="0"
             style="fill:#928505;enable-background:new" />
          <path
             id="path1477"
             d="m 291.5,747.3 c 5.2,3.2 7.3,7.3 7.2,12.3 -0.2,5.6 -3,9.6 -8,12.1 -5.6,2.8 -11.3,5.3 -17,7.9 -13,6 -26.1,12 -39.1,17.9 -5.6,2.5 -10.9,1.8 -15.3,-2.3 -4.3,-3.9 -5.9,-9.2 -3.5,-14.6 1.4,-3.1 4.1,-6.4 7.1,-7.8 18.8,-9 37.8,-17.6 56.8,-26.2 4.3,-1.9 8.6,-1.4 11.8,0.7 z"
             class="st23"
             inkscape:connector-curvature="0"
             style="fill:#8a7b08;enable-background:new" />
          <path
             id="path1479"
             d="m 328.7,815.6 c -1.6,1.5 -3,3.3 -4.8,4.4 -17.1,11 -34.1,22 -51.3,32.9 -6.7,4.2 -14.4,2.7 -18.8,-3.3 -4.8,-6.4 -2.9,-15.2 4.3,-20 14.5,-9.4 29.1,-18.7 43.7,-28.1 2.7,-1.8 5.4,-3.6 8.2,-5.2 5.8,-3.4 12.6,-2.4 17.2,2.4 4.4,4.5 4.8,10.9 1.5,16.9 z"
             class="st24"
             inkscape:connector-curvature="0"
             style="fill:#7d7200;enable-background:new" />
          <path
             id="path1481"
             d="m 362.9,840.4 c 7.8,4.7 9.3,15.2 2.5,21.3 -15.8,14.1 -32,27.9 -48.2,41.5 -5.8,4.9 -14,3.7 -18.9,-2 -4.7,-5.5 -4.1,-13.9 1.6,-18.9 15.6,-13.6 31.3,-27.1 47,-40.5 4.9,-4.2 10.8,-4.6 16,-1.4 z"
             class="st24"
             inkscape:connector-curvature="0"
             style="fill:#7d7200;enable-background:new" />
          <path
             id="path1483"
             d="m 411.5,898 c -7,8 -13.9,16 -20.8,23.9 -6.8,7.7 -13.6,15.4 -20.4,23.1 -4,4.5 -9,6.6 -14.7,4.7 -5.5,-1.8 -9.3,-5.7 -9.9,-11.9 -0.5,-4.9 2.1,-8.6 5,-11.9 12.9,-14.9 25.9,-29.6 38.9,-44.3 4.5,-5.1 11,-6.5 16.3,-4 5.8,2.8 9,8.2 7.9,14.3 -0.4,2 -1.5,4 -2.3,6.1 z"
             class="st25"
             inkscape:connector-curvature="0"
             style="fill:#6e6500;enable-background:new" />
          <path
             id="path1485"
             d="m 509.9,934.5 c 6.6,4.1 8.2,11.4 4.4,19.5 -8.5,17.8 -16.9,35.7 -25.3,53.6 -3.1,6.6 -11.2,9.9 -17.8,7.1 -6.9,-2.9 -10.3,-10.6 -7.3,-17.5 4.7,-10.7 9.8,-21.2 14.8,-31.8 3.8,-8.1 7.8,-16.2 11.4,-24.4 3.5,-7.8 12.5,-11 19.8,-6.5 z"
             class="st26"
             inkscape:connector-curvature="0"
             style="fill:#665b01;enable-background:new" />
          <path
             id="path1487"
             d="m 457.6,934.5 c -10.5,15.7 -20.7,31.6 -31.4,47.1 -4.6,6.7 -12.2,7.3 -18.9,2.5 -5.3,-3.7 -6.9,-11.8 -3.2,-17.9 4.4,-7.2 9.2,-14.2 13.9,-21.3 6.7,-10.1 13.5,-20.1 20.1,-30.3 4.5,-6.8 12,-8.6 18.9,-4.3 6.5,4 8.1,11.5 4,18.3 -1.1,1.9 -2.3,3.8 -3.5,5.7 0,0.1 0.1,0.2 0.1,0.2 z"
             class="st25"
             inkscape:connector-curvature="0"
             style="fill:#6e6500;enable-background:new" />
          <path
             id="path1489"
             d="m 605.2,964.4 c 3.8,-5.6 10,-7.9 16.2,-5.8 6,2 9.8,8.4 8.7,15.4 -2.6,16.6 -5.3,33.2 -8.1,49.7 -0.9,5.3 -1.8,10.9 -4,15.7 -2.8,6.2 -8.9,7.9 -15.6,5.8 -5.5,-1.7 -9.6,-7.5 -8.8,-13.6 0.8,-7 2.2,-13.9 3.3,-20.8 2.2,-13.2 4.3,-26.5 6.5,-39.7 0.3,-2.2 1.1,-4.4 1.8,-6.7 z"
             class="st27"
             inkscape:connector-curvature="0"
             style="fill:#594f0a;enable-background:new" />
          <path
             id="path1491"
             d="m 654.6,968.9 c -0.3,2.3 -0.8,4.6 -0.9,6.9 -0.2,13.4 -0.3,26.8 -0.4,40.2 -0.1,7 -0.4,14.1 -0.1,21.1 0.2,6.2 5.1,11.3 10.8,12.1 7,1 12.7,-1.6 14.6,-8.1 1.4,-5.1 1.5,-10.7 1.6,-16.2 0.3,-16.8 0.4,-33.6 0.5,-50.4 0,-7 -4.7,-12.8 -10.9,-13.9 -6.5,-1.1 -12.3,2.1 -15.2,8.3 z"
             inkscape:connector-curvature="0" />
          <path
             id="path1493"
             d="m 654.6,968.9 c 3,-6.1 8.7,-9.3 15.1,-8.2 6.2,1.1 10.9,6.8 10.9,13.9 -0.1,16.8 -0.2,33.6 -0.5,50.4 -0.1,5.4 -0.1,11 -1.6,16.2 -1.8,6.5 -7.6,9.2 -14.6,8.1 -5.7,-0.8 -10.6,-5.9 -10.8,-12.1 -0.3,-7 0,-14.1 0.1,-21.1 0.1,-13.4 0.2,-26.8 0.4,-40.2 0.1,-2.5 0.7,-4.7 1,-7 z"
             class="st28"
             inkscape:connector-curvature="0"
             style="fill:#595006;enable-background:new" />
          <path
             id="path1495"
             d="m 546.6,957.7 c 4.6,-7.7 11,-10.1 17.1,-7.7 6.5,2.5 10.2,9.3 8.2,16.3 -3.9,13.2 -8.1,26.4 -12.2,39.6 -2,6.6 -4.1,13.2 -6.2,19.7 -2.4,7.5 -9.5,11.4 -16.9,9.2 -7.1,-2.1 -11.1,-9.6 -8.8,-17.2 5.1,-16.7 10.4,-33.3 15.6,-50 1.2,-3.9 2.5,-7.8 3.2,-9.9 z"
             class="st29"
             inkscape:connector-curvature="0"
             style="fill:#645b06;enable-background:new" />
        </g>
        <path
           id="path1499"
           d="m 1143.8,504.4 c 2.3,-8.3 -3.6,-17.1 -12.2,-17.2 -21.2,-0.2 -42.4,-0.2 -63.5,-0.1 -7.9,0.1 -13.7,6.3 -13.5,13.8 0.1,7.6 5.7,13.6 13.6,13.7 20.9,0.2 41.9,0.1 62.8,0 6.3,-0.1 11.2,-4.2 12.8,-10.2 z"
           inkscape:connector-curvature="0" />
        <path
           id="path1501"
           d="m 1115.4,373.6 c 2.8,-10.1 -5.8,-19.3 -16.3,-17 -3.8,0.8 -7.5,2.1 -11.3,3.2 -16.3,4.7 -32.5,9.3 -48.8,14 -7.8,2.3 -11.9,9.7 -9.9,17.1 2,7.3 9.3,11.7 16.8,9.6 20.2,-5.6 40.4,-11.5 60.4,-17.4 4.8,-1.5 7.9,-4.7 9.1,-9.5 z"
           inkscape:connector-curvature="0" />
        <path
           id="path1503"
           d="m 972.6,280.1 c 0.3,0.3 0.5,0.5 0.8,0.8 -2.3,7.9 1.5,14.7 9.3,17 4.2,1.2 7.9,0.4 11.5,-1.9 17.1,-10.7 34.3,-21.3 51.4,-32.1 7.1,-4.5 9.2,-12.7 5.1,-19.3 -4.1,-6.6 -12.6,-8.5 -19.8,-4 -17,10.6 -34.1,21.2 -51,32 -2.8,1.8 -4.9,5 -7.3,7.5 z"
           inkscape:connector-curvature="0" />
        <path
           id="path1505"
           d="m 1014.5,347.9 c 3.3,-0.6 6.9,-0.6 10,-1.9 18.3,-7.9 36.5,-16.2 54.7,-24.3 8.2,-3.7 11.4,-11.6 8.1,-18.9 -3.3,-7.3 -11.4,-9.9 -19.5,-6.2 -10,4.5 -20,8.9 -30,13.4 -8.4,3.8 -16.9,7.4 -25.3,11.4 -5.7,2.7 -8.6,8.2 -8.1,14 0.5,5.6 4,9.9 10.1,12.5 z"
           inkscape:connector-curvature="0" />
        <path
           id="path1507"
           d="m 945,253.6 c 3.6,1.2 7.9,0.5 11.5,-2.5 16.1,-13.4 32.1,-26.6 47.9,-40.3 2.4,-2.2 4.2,-6 4.7,-9.4 0.9,-5.8 -2,-10.5 -7.2,-13.2 -5.3,-2.8 -10.7,-2 -15.3,1.9 -11,9.2 -22,18.5 -33,27.6 -4.8,4.1 -9.7,8 -14.4,12.1 -4.1,3.6 -5.8,8.3 -4.5,13.8 1.3,5.1 4.4,8.3 10.3,10 z"
           inkscape:connector-curvature="0" />
        <path
           id="path1509"
           d="m 891,197.7 c -1.6,6.7 0.5,12.7 5.8,15.9 5.7,3.4 12.5,2.5 17.3,-2.3 2.3,-2.4 4.4,-4.8 6.6,-7.3 11.6,-12.9 23.2,-25.7 34.8,-38.6 5.8,-6.5 5.2,-15.5 -1.1,-20.5 -5.9,-4.6 -13.7,-4 -19,1.8 -13.6,15 -27.2,30.2 -40.7,45.3 -1.7,1.8 -2.6,3.8 -3.7,5.7 z"
           inkscape:connector-curvature="0" />
        <path
           id="path1511"
           d="m 851.5,182.9 c 5.8,1.6 11.5,-0.3 15,-5.5 11.6,-17.1 23.2,-34.3 34.6,-51.5 4.2,-6.3 2.5,-14.6 -3.5,-18.7 -6.2,-4.2 -14.4,-3.1 -18.8,3.1 -12,17.5 -23.9,35 -35.4,52.8 -4.9,7.6 -0.7,17.3 8.1,19.8 z"
           inkscape:connector-curvature="0" />
        <path
           id="path1513"
           d="m 789.3,140.2 c -0.2,2.2 -0.7,4.4 -0.5,6.5 0.6,6.1 5.1,10.5 11.4,11.7 5.8,1 11.6,-2.1 14.6,-8.2 8.6,-17.6 17.3,-35.3 25.8,-53 1.9,-3.9 3.4,-8.2 1.6,-12.8 -2.2,-5.9 -6.8,-8.6 -12.7,-8.9 -6.1,-0.4 -10.3,3 -13,8.4 -4.5,9.2 -9.1,18.4 -13.5,27.7 -4.5,9.4 -9,18.9 -13.7,28.6 z"
           inkscape:connector-curvature="0" />
        <path
           id="path1515"
           d="m 684.8,131 c 8.2,2.4 16.1,-3.1 17.3,-11.6 1.3,-8.9 3,-17.7 4.6,-26.5 2,-11.5 4.2,-23 5.8,-34.6 1.1,-7.4 -4.2,-14 -11.6,-15 -7.1,-1 -14,4.3 -15.3,11.6 -3.4,19.5 -6.8,38.9 -10.2,58.4 -1.6,8.9 1.9,15.6 9.4,17.7 z"
           inkscape:connector-curvature="0" />
        <path
           id="path1517"
           d="m 735.2,117.2 c 0,0 0.1,0 0.1,0.1 -0.6,2.2 -1.2,4.2 -1.8,6.4 -2.1,7.6 1.4,14.4 8.7,16.6 7.9,2.4 14.6,-1.4 17.2,-9.1 3.7,-11.5 7.6,-22.9 11.4,-34.5 2.6,-8 5.4,-16.1 7.7,-24.2 2,-6.9 -1.7,-14.2 -7.8,-16.4 -7.8,-2.8 -14.9,-0.2 -17.6,7.4 -6.3,17.7 -12,35.7 -17.9,53.7 z"
           inkscape:connector-curvature="0" />
        <path
           id="path1519"
           d="m 1143.8,504.4 c -1.6,5.9 -6.5,10.1 -12.8,10.1 -20.9,0.1 -41.9,0.2 -62.8,0 -8,-0.1 -13.6,-6.1 -13.6,-13.7 -0.1,-7.5 5.5,-13.7 13.5,-13.8 21.1,-0.2 42.4,-0.3 63.5,0.1 8.6,0.1 14.5,9 12.2,17.3 z"
           class="st0"
           inkscape:connector-curvature="0"
           style="fill:#181818;enable-background:new" />
        <path
           id="path1521"
           d="m 1115.4,373.6 c -1.2,4.8 -4.4,8.1 -9,9.5 -20.2,5.9 -40.2,11.8 -60.4,17.4 -7.5,2.1 -14.8,-2.4 -16.8,-9.6 -2,-7.4 2.1,-14.8 9.9,-17.1 16.2,-4.8 32.5,-9.4 48.8,-14 3.8,-1.1 7.5,-2.4 11.3,-3.2 10.3,-2.4 19,6.7 16.2,17 z"
           class="st30"
           inkscape:connector-curvature="0"
           style="fill:#ffed00;enable-background:new" />
        <path
           id="path1523"
           d="m 972.6,280.1 c 2.4,-2.6 4.4,-5.7 7.3,-7.6 16.9,-10.9 34,-21.5 51,-32 7.2,-4.4 15.8,-2.6 19.8,4 4,6.6 1.9,14.8 -5.1,19.3 -17.1,10.8 -34.3,21.4 -51.4,32.1 -3.5,2.2 -7.3,3.1 -11.5,1.9 -7.9,-2.3 -11.6,-9.1 -9.3,-17 -0.2,-0.2 -0.5,-0.4 -0.8,-0.7 z"
           class="st31"
           inkscape:connector-curvature="0"
           style="fill:#fcea0a;enable-background:new" />
        <path
           id="path1525"
           d="m 1014.5,347.9 c -6.1,-2.7 -9.7,-6.8 -10.2,-12.5 -0.6,-5.8 2.4,-11.3 8.1,-14 8.4,-4 16.9,-7.6 25.3,-11.4 10,-4.5 20,-8.9 30,-13.4 8.2,-3.6 16.2,-1.1 19.5,6.2 3.3,7.3 0.1,15.2 -8.1,18.9 -18.2,8.2 -36.4,16.3 -54.7,24.3 -2.9,1.3 -6.5,1.3 -9.9,1.9 z"
           class="st32"
           inkscape:connector-curvature="0"
           style="fill:#ffea00;enable-background:new" />
        <path
           id="path1527"
           d="m 945,253.6 c -5.9,-1.7 -9,-5.1 -10.2,-10 -1.3,-5.4 0.3,-10.1 4.5,-13.8 4.7,-4.2 9.5,-8.1 14.4,-12.1 11,-9.2 21.9,-18.5 33,-27.6 4.6,-3.9 10,-4.6 15.3,-1.9 5.2,2.7 8.2,7.3 7.2,13.2 -0.6,3.4 -2.3,7.3 -4.7,9.4 -15.7,13.7 -31.8,27 -47.9,40.3 -3.7,3.1 -8,3.8 -11.6,2.5 z"
           class="st33"
           inkscape:connector-curvature="0"
           style="fill:#f2e600;enable-background:new" />
        <path
           id="path1529"
           d="m 891,197.7 c 1.2,-1.9 2,-3.9 3.4,-5.5 13.5,-15.1 27.1,-30.2 40.7,-45.3 5.3,-5.8 13.1,-6.4 19,-1.8 6.2,4.9 6.8,14 1.1,20.5 -11.5,12.9 -23.2,25.8 -34.8,38.6 -2.2,2.5 -4.3,4.9 -6.6,7.3 -4.7,4.8 -11.5,5.7 -17.3,2.3 -5,-3.4 -7.1,-9.4 -5.5,-16.1 z"
           class="st34"
           inkscape:connector-curvature="0"
           style="fill:#f8e100;enable-background:new" />
        <path
           id="path1531"
           d="m 851.5,182.9 c -8.8,-2.5 -13,-12.2 -8,-19.9 11.6,-17.8 23.5,-35.3 35.4,-52.8 4.3,-6.3 12.6,-7.3 18.8,-3.1 6,4.1 7.7,12.4 3.5,18.7 -11.5,17.3 -23,34.3 -34.6,51.5 -3.7,5.3 -9.3,7.2 -15.1,5.6 z"
           class="st35"
           inkscape:connector-curvature="0"
           style="fill:#eed500;enable-background:new" />
        <path
           id="path1533"
           d="m 789.3,140.2 c 4.6,-9.6 9.2,-19.2 13.8,-28.6 4.4,-9.2 9,-18.5 13.5,-27.7 2.6,-5.4 6.9,-8.7 13,-8.4 5.8,0.3 10.4,3 12.7,8.9 1.8,4.6 0.3,8.9 -1.6,12.8 -8.4,17.7 -17.2,35.4 -25.8,53 -3,6.1 -8.8,9.2 -14.6,8.2 -6.3,-1.1 -10.8,-5.6 -11.4,-11.7 -0.3,-2.2 0.2,-4.3 0.4,-6.5 z"
           class="st36"
           inkscape:connector-curvature="0"
           style="fill:#f9df0a;enable-background:new" />
        <path
           id="path1535"
           d="m 684.02783,133.07404 c -7.36168,-2.30285 -10.74237,-9.30604 -9.08479,-18.50359 3.74526,-20.149984 7.48875,-40.196338 11.234,-60.346324 1.42748,-7.439231 8.42221,-12.917295 15.50344,-11.759519 7.38119,1.162908 12.56694,7.885995 11.33234,15.743174 -1.90366,11.888545 -4.20726,23.770247 -6.41264,35.757292 -1.75757,9.195837 -3.5116,18.184407 -5.0692,27.383667 -1.35231,8.89179 -9.3469,14.35274 -17.50315,11.7253 z"
           class="st37"
           inkscape:connector-curvature="0"
           style="fill:#e3cd00;stroke-width:1.01807022;enable-background:new"
           inkscape:transform-center-x="-2.1972656"
           inkscape:transform-center-y="-1.0986328" />
        <path
           id="path1537"
           d="m 735.2,117.2 c 5.9,-17.9 11.7,-35.9 17.8,-53.7 2.7,-7.6 9.9,-10.2 17.6,-7.4 6.1,2.2 9.8,9.5 7.8,16.4 -2.3,8.1 -5.1,16.1 -7.7,24.2 -3.8,11.5 -7.6,22.9 -11.4,34.5 -2.5,7.8 -9.3,11.5 -17.2,9.1 -7.3,-2.2 -10.9,-8.9 -8.7,-16.6 0.6,-2.2 1.2,-4.3 1.8,-6.4 0.1,-0.1 0.1,-0.2 0,-0.1 z"
           class="st37"
           inkscape:connector-curvature="0"
           style="fill:#e3cd00;enable-background:new" />
      </g>
    </g>
  </g>
  <style
     id="style1390"
     type="text/css">
	.st0{fill:#181818;enable-background:new    ;}
	.st1{fill:#4E460D;enable-background:new    ;}
	.st2{fill:#3F3912;enable-background:new    ;}
	.st3{fill:#3F3910;enable-background:new    ;}
	.st4{fill:#3C3A14;enable-background:new    ;}
	.st5{fill:#343013;enable-background:new    ;}
	.st6{fill:#343014;enable-background:new    ;}
	.st7{fill:#363019;enable-background:new    ;}
	.st8{fill:#25221B;enable-background:new    ;}
	.st9{fill:#252317;enable-background:new    ;}
	.st10{fill:#D9C101;enable-background:new    ;}
	.st11{fill:#CEB901;enable-background:new    ;}
	.st12{fill:#C1AE02;enable-background:new    ;}
	.st13{fill:#C5AC02;enable-background:new    ;}
	.st14{fill:#BEA300;enable-background:new    ;}
	.st15{fill:#B9A501;enable-background:new    ;}
	.st16{fill:#AE9800;enable-background:new    ;}
	.st17{fill:#B49F00;enable-background:new    ;}
	.st18{fill:#9F9000;enable-background:new    ;}
	.st19{fill:#9A9300;enable-background:new    ;}
	.st20{fill:#968400;enable-background:new    ;}
	.st21{fill:#8A7C01;enable-background:new    ;}
	.st22{fill:#928505;enable-background:new    ;}
	.st23{fill:#8A7B08;enable-background:new    ;}
	.st24{fill:#7D7200;enable-background:new    ;}
	.st25{fill:#6E6500;enable-background:new    ;}
	.st26{fill:#665B01;enable-background:new    ;}
	.st27{fill:#594F0A;enable-background:new    ;}
	.st28{fill:#595006;enable-background:new    ;}
	.st29{fill:#645B06;enable-background:new    ;}
	.st30{fill:#FFED00;enable-background:new    ;}
	.st31{fill:#FCEA0A;enable-background:new    ;}
	.st32{fill:#FFEA00;enable-background:new    ;}
	.st33{fill:#F2E600;enable-background:new    ;}
	.st34{fill:#F8E100;enable-background:new    ;}
	.st35{fill:#EED500;enable-background:new    ;}
	.st36{fill:#F9DF0A;enable-background:new    ;}
	.st37{fill:#E3CD00;enable-background:new    ;}
	.st38{fill:#FFFFFF;}
</style>
</svg>
