<?xml version="1.0" encoding="UTF-8" standalone="no"?>
<!-- Created with Inkscape (http://www.inkscape.org/) -->

<svg
   xmlns:dc="http://purl.org/dc/elements/1.1/"
   xmlns:cc="http://creativecommons.org/ns#"
   xmlns:rdf="http://www.w3.org/1999/02/22-rdf-syntax-ns#"
   xmlns:svg="http://www.w3.org/2000/svg"
   xmlns="http://www.w3.org/2000/svg"
   xmlns:sodipodi="http://sodipodi.sourceforge.net/DTD/sodipodi-0.dtd"
   xmlns:inkscape="http://www.inkscape.org/namespaces/inkscape"
   width="500px"
   height="500px"
   viewBox="0 0 500 500"
   version="1.1"
   id="SVGRoot"
   sodipodi:docname="mainTypo.svg"
   inkscape:export-filename="C:\Users\Slvnm\circle.png"
   inkscape:export-xdpi="250"
   inkscape:export-ydpi="250"
   inkscape:version="0.92.2 (5c3e80d, 2017-08-06)">
  <sodipodi:namedview
     id="base"
     pagecolor="#ffffff"
     bordercolor="#666666"
     borderopacity="1.0"
     inkscape:pageopacity="0.0"
     inkscape:pageshadow="2"
     inkscape:zoom="0.72407734"
     inkscape:cx="153.64857"
     inkscape:cy="1.3186821"
     inkscape:document-units="px"
     inkscape:current-layer="layer1"
     showgrid="false"
     inkscape:window-width="1920"
     inkscape:window-height="1017"
     inkscape:window-x="-8"
     inkscape:window-y="-8"
     inkscape:window-maximized="1"
     inkscape:snap-nodes="false" />
  <defs
     id="defs831" />
  <metadata
     id="metadata834">
    <rdf:RDF>
      <cc:Work
         rdf:about="">
        <dc:format>image/svg+xml</dc:format>
        <dc:type
           rdf:resource="http://purl.org/dc/dcmitype/StillImage" />
        <dc:title></dc:title>
      </cc:Work>
    </rdf:RDF>
  </metadata>
  <g
     id="layer1"
     inkscape:groupmode="layer"
     inkscape:label="Calque 1">
    <path
       id="path1590-0"
       d="m 337.14746,270.79601 c -12.0049,0 -24.00981,0 -36.01472,0 -3.78703,0 -6.58944,-1.96924 -7.38472,-5.18824 -1.06037,-4.27935 1.89352,-8.29361 6.40009,-8.63443 0.53019,-0.0379 1.09825,-0.0379 1.62843,-0.0379 22.34352,0 44.68703,0 67.03055,-0.0379 1.21185,0 2.57519,-0.34083 3.55982,-0.98463 1.32546,-0.83315 1.62842,-4.31722 0.83314,-6.135 -0.7574,-1.74204 -2.19648,-2.15861 -3.97638,-2.15861 -20.29852,0.0379 -40.63491,0.0379 -60.93343,0 -8.89953,0 -14.76944,-5.90778 -14.76944,-14.76944 0,-2.61306 0,-5.22611 0,-7.83917 0.0379,-8.21787 5.94565,-14.23926 14.20139,-14.315 9.35398,-0.0379 18.67009,0 28.02407,0 14.46648,0 28.97083,0 43.43731,0 1.13611,0 2.31009,0.0757 3.37047,0.41658 3.21898,0.98463 5.07462,4.09 4.65805,7.5362 -0.3787,3.14324 -3.14324,5.64268 -6.5137,5.86991 -0.45445,0.0379 -0.87102,0 -1.32547,0 -22.57073,0 -45.17934,0 -67.75008,0 -2.99176,0 -4.20361,1.21185 -4.24149,4.20361 0,0.49231 0,0.98463 0,1.47694 0.0757,2.15862 1.32547,3.4462 3.52195,3.59769 0.6438,0.0379 1.28759,0.0379 1.93139,0.0379 20.10916,0 40.21833,0 60.32749,0 6.93028,0 12.83806,4.46871 13.74695,11.2475 0.64379,4.73379 0.64379,9.73268 -0.0379,14.46648 -0.94676,6.7788 -6.81667,11.17176 -13.82269,11.20963 -11.96703,0.0757 -23.93407,0.0379 -35.90111,0.0379 z"
       class="st38"
       inkscape:connector-curvature="0"
       style="fill:#181818;stroke-width:0.37870368;fill-opacity:1" />
    <path
       id="path1592-0"
       d="m 201.34433,255.49639 c 0.30296,-0.60593 0.56805,-1.06037 0.83314,-1.55269 6.66519,-13.06528 13.33037,-26.13055 19.99556,-39.15796 1.70416,-3.33259 5.07463,-4.80954 8.40722,-3.67343 4.05213,1.32547 5.90778,5.79417 3.93852,9.77056 -2.08287,4.20361 -4.24148,8.36935 -6.36223,12.53509 -5.11249,9.99778 -10.22499,19.95769 -15.26175,29.95546 -2.42371,4.77167 -6.24861,7.38473 -11.55046,7.38473 -5.26399,0 -9.01315,-2.65092 -11.43686,-7.34686 -6.09712,-11.96703 -12.23212,-23.8962 -18.32925,-35.86324 -0.22723,-0.41657 -0.45445,-0.83313 -0.75741,-1.40119 -0.3787,0.68167 -0.68167,1.24972 -0.98463,1.81778 -6.02139,11.77768 -12.08065,23.5175 -18.06417,35.33304 -2.46157,4.80955 -6.28648,7.49833 -11.66407,7.46047 -5.33972,0 -9.08889,-2.76453 -11.47472,-7.53621 -7.11963,-14.04991 -14.27713,-28.06194 -21.39676,-42.11185 -2.4237,-4.77166 0.26509,-9.80842 5.41546,-10.3386 2.76454,-0.26509 5.3776,1.24971 6.81667,4.05213 3.97639,7.72556 7.91491,15.48898 11.85343,23.21454 2.68879,5.26398 5.37759,10.56583 8.06638,15.82981 0.22723,0.49232 0.53019,0.94676 0.87102,1.55269 0.34084,-0.56806 0.56806,-1.0225 0.83315,-1.47695 6.21074,-12.11852 12.38361,-24.2749 18.63222,-36.35555 3.10537,-6.05926 9.92204,-8.44509 16.17065,-5.83204 2.91602,1.21185 4.92315,3.33259 6.36222,6.135 6.09713,12.00491 12.23213,24.00981 18.36713,36.01472 0.11361,0.49232 0.3787,0.98463 0.71954,1.59055 z"
       class="st38"
       inkscape:connector-curvature="0"
       style="fill:#181818;stroke-width:0.37870368;fill-opacity:1" />
    <path
       id="path1594-5"
       d="m 257.54395,240.76481 c 0,-7.68768 -0.0379,-15.41324 0,-23.10092 0,-3.55982 2.49944,-6.32435 5.98352,-6.81667 3.29472,-0.45444 6.43796,1.51482 7.42259,4.77167 0.18935,0.64379 0.30296,1.36333 0.30296,2.045 0,15.3375 0.0379,30.71287 0,46.05037 0,3.52194 -2.19648,6.135 -5.26398,6.85454 -4.43083,1.02249 -8.44509,-2.19648 -8.48296,-6.85454 0,-7.64982 0.0379,-15.29963 0.0379,-22.94945 z"
       class="st38"
       inkscape:connector-curvature="0"
       style="fill:#181818;stroke-width:0.37870368;fill-opacity:1" />
  </g>
  <style
     id="style1390"
     type="text/css">
	.st0{fill:#181818;enable-background:new    ;}
	.st1{fill:#4E460D;enable-background:new    ;}
	.st2{fill:#3F3912;enable-background:new    ;}
	.st3{fill:#3F3910;enable-background:new    ;}
	.st4{fill:#3C3A14;enable-background:new    ;}
	.st5{fill:#343013;enable-background:new    ;}
	.st6{fill:#343014;enable-background:new    ;}
	.st7{fill:#363019;enable-background:new    ;}
	.st8{fill:#25221B;enable-background:new    ;}
	.st9{fill:#252317;enable-background:new    ;}
	.st10{fill:#D9C101;enable-background:new    ;}
	.st11{fill:#CEB901;enable-background:new    ;}
	.st12{fill:#C1AE02;enable-background:new    ;}
	.st13{fill:#C5AC02;enable-background:new    ;}
	.st14{fill:#BEA300;enable-background:new    ;}
	.st15{fill:#B9A501;enable-background:new    ;}
	.st16{fill:#AE9800;enable-background:new    ;}
	.st17{fill:#B49F00;enable-background:new    ;}
	.st18{fill:#9F9000;enable-background:new    ;}
	.st19{fill:#9A9300;enable-background:new    ;}
	.st20{fill:#968400;enable-background:new    ;}
	.st21{fill:#8A7C01;enable-background:new    ;}
	.st22{fill:#928505;enable-background:new    ;}
	.st23{fill:#8A7B08;enable-background:new    ;}
	.st24{fill:#7D7200;enable-background:new    ;}
	.st25{fill:#6E6500;enable-background:new    ;}
	.st26{fill:#665B01;enable-background:new    ;}
	.st27{fill:#594F0A;enable-background:new    ;}
	.st28{fill:#595006;enable-background:new    ;}
	.st29{fill:#645B06;enable-background:new    ;}
	.st30{fill:#FFED00;enable-background:new    ;}
	.st31{fill:#FCEA0A;enable-background:new    ;}
	.st32{fill:#FFEA00;enable-background:new    ;}
	.st33{fill:#F2E600;enable-background:new    ;}
	.st34{fill:#F8E100;enable-background:new    ;}
	.st35{fill:#EED500;enable-background:new    ;}
	.st36{fill:#F9DF0A;enable-background:new    ;}
	.st37{fill:#E3CD00;enable-background:new    ;}
	.st38{fill:#FFFFFF;}
</style>
</svg>
