<?xml version="1.0" encoding="UTF-8" standalone="no"?>
<!-- Created with Inkscape (http://www.inkscape.org/) -->

<svg
   xmlns:dc="http://purl.org/dc/elements/1.1/"
   xmlns:cc="http://creativecommons.org/ns#"
   xmlns:rdf="http://www.w3.org/1999/02/22-rdf-syntax-ns#"
   xmlns:svg="http://www.w3.org/2000/svg"
   xmlns="http://www.w3.org/2000/svg"
   xmlns:sodipodi="http://sodipodi.sourceforge.net/DTD/sodipodi-0.dtd"
   xmlns:inkscape="http://www.inkscape.org/namespaces/inkscape"
   width="500px"
   height="500px"
   viewBox="0 0 500 500"
   version="1.1"
   id="SVGRoot"
   sodipodi:docname="typo.svg"
   inkscape:export-filename="C:\Users\Slvnm\circle.png"
   inkscape:export-xdpi="250"
   inkscape:export-ydpi="250"
   inkscape:version="0.92.2 (5c3e80d, 2017-08-06)">
  <sodipodi:namedview
     id="base"
     pagecolor="#ffffff"
     bordercolor="#666666"
     borderopacity="1.0"
     inkscape:pageopacity="0.0"
     inkscape:pageshadow="2"
     inkscape:zoom="1.024"
     inkscape:cx="-16.982611"
     inkscape:cy="138.81843"
     inkscape:document-units="px"
     inkscape:current-layer="layer1"
     showgrid="false"
     inkscape:window-width="1920"
     inkscape:window-height="1017"
     inkscape:window-x="-8"
     inkscape:window-y="-8"
     inkscape:window-maximized="1"
     inkscape:snap-nodes="false" />
  <defs
     id="defs831" />
  <metadata
     id="metadata834">
    <rdf:RDF>
      <cc:Work
         rdf:about="">
        <dc:format>image/svg+xml</dc:format>
        <dc:type
           rdf:resource="http://purl.org/dc/dcmitype/StillImage" />
        <dc:title></dc:title>
      </cc:Work>
    </rdf:RDF>
  </metadata>
  <g
     id="layer1"
     inkscape:groupmode="layer"
     inkscape:label="Calque 1">
    <path
       id="path1596-7"
       d="m 144.04646,283.5962 c -1.0225,3.48407 -2.045,6.96815 -3.10537,10.45222 -0.18935,0.68167 -0.18935,1.43908 -1.28759,1.47695 -1.17399,0.0379 -1.17399,-0.83315 -1.40121,-1.55268 -1.24972,-4.24149 -2.49944,-8.48296 -3.74916,-12.76232 1.24972,-0.45445 1.7799,-0.11362 2.08287,1.09824 0.90889,3.52194 1.89351,7.00601 2.99176,10.94453 0.30296,-0.79527 0.45444,-1.17398 0.56805,-1.55268 0.94676,-3.10537 1.81778,-6.24861 2.84028,-9.31611 0.15148,-0.53019 0.71954,-1.09824 1.21185,-1.2876 1.0225,-0.34083 1.13611,0.6438 1.32546,1.32547 0.90889,3.0675 1.81778,6.135 2.72667,9.2025 0.11361,0.41657 0.26509,0.83315 0.56806,1.66629 0.79527,-2.84027 1.51481,-5.26398 2.19648,-7.68768 0.30296,-1.13611 0.68166,-2.27222 0.90889,-3.40833 0.22722,-1.09825 0.83314,-1.2876 1.96925,-0.94676 -1.36333,4.58231 -2.68879,9.08889 -4.05212,13.59546 -0.0757,0.30296 -0.56806,0.60593 -0.90889,0.68167 -0.90889,0.22722 -1.17398,-0.37871 -1.36334,-1.09825 -0.87102,-3.14324 -1.81777,-6.24861 -2.72666,-9.35398 -0.15148,-0.45443 -0.30297,-0.90888 -0.45445,-1.36333 -0.0757,-0.0757 -0.22722,-0.11361 -0.34083,-0.11361 z"
       class="st30"
       inkscape:connector-curvature="0"
       style="fill:#ffed00;stroke-width:0.37870368;enable-background:new" />
    <path
       id="path1598-7"
       d="m 256.74867,295.29814 c 0,-4.69592 0,-9.39185 0,-14.12564 1.24972,-0.41658 2.08287,-0.11362 2.84028,1.0225 2.08287,3.18111 4.31722,6.24861 6.5137,9.35398 0.30297,0.41657 0.6438,0.83314 1.21186,1.62842 0,-4.27935 0,-8.14213 0,-12.08065 0.64379,0 1.09824,0 1.62842,0 0,4.77167 0,9.42973 0,14.20139 -1.21185,0.37871 -2.08287,0.2651 -2.87815,-0.94676 -2.38583,-3.55981 -4.88527,-7.04388 -7.61194,-10.94453 -0.0757,0.87102 -0.11361,1.32547 -0.11361,1.74203 0,3.02963 -0.0379,6.02139 0,9.05102 0,1.21186 -0.41658,1.51482 -1.59056,1.09824 z"
       class="st30"
       inkscape:connector-curvature="0"
       style="fill:#ffed00;stroke-width:0.37870368;enable-background:new" />
    <path
       id="path1600-3"
       d="m 199.75377,281.21037 c 1.4012,-0.45445 2.19648,-0.0379 2.91602,1.0225 2.12074,3.21898 4.39296,6.32435 6.58944,9.50546 0.26509,0.3787 0.56806,0.75741 1.13611,1.47695 0,-4.27936 0,-8.14214 0,-12.04278 0.90889,-0.18936 1.6663,-0.41658 1.6663,0.79528 0,4.31722 0,8.59658 -0.0379,12.91379 0,0.15148 -0.0757,0.26509 -0.15148,0.45444 -1.21186,0.45445 -2.08287,0.11361 -2.84028,-1.0225 -2.12074,-3.18111 -4.31722,-6.24861 -6.5137,-9.35397 -0.2651,-0.3787 -0.56806,-0.75741 -1.13611,-1.47695 -0.0379,0.87102 -0.11361,1.40121 -0.11361,1.89353 0,2.91601 0.0379,5.83202 -0.0379,8.74804 0,0.45446 -0.53019,0.90889 -0.83315,1.40121 -0.22722,-0.45445 -0.6438,-0.90889 -0.6438,-1.32547 -0.0379,-4.35509 0,-8.6723 0,-12.98953 z"
       class="st30"
       inkscape:connector-curvature="0"
       style="fill:#ffed00;stroke-width:0.37870368;enable-background:new" />
    <path
       id="path1602-3"
       d="m 170.47998,295.33601 c 0,-4.77166 0,-9.42972 0,-14.42861 2.23435,0.15148 4.39296,0.18935 6.47583,0.49232 1.24972,0.18935 2.23435,1.0225 2.49944,2.38583 0.34084,1.74204 -0.11361,2.61306 -2.00713,4.05213 0.6438,0.45444 1.43908,0.79528 1.96926,1.36333 2.00713,2.15861 0.68167,5.52908 -2.53731,6.05926 -2.00713,0.34084 -4.16574,0.0757 -6.40009,0.0757 z m 1.62842,-1.13611 c 1.74204,-0.18935 3.37046,-0.11361 4.88528,-0.56805 0.71954,-0.22723 1.4012,-1.36334 1.59055,-2.19648 0.22723,-1.06037 -0.49231,-2.08287 -1.62842,-2.3101 -1.55269,-0.30296 -3.14324,-0.34083 -4.84741,-0.53017 0,1.96926 0,3.55981 0,5.6048 z m 0.0379,-11.77767 c 0,1.74203 0,3.21898 0,4.92315 1.51482,-0.15149 2.91602,-0.15149 4.27935,-0.41658 1.0225,-0.18935 1.62843,-1.13611 1.32547,-2.12074 -0.18936,-0.75741 -0.79528,-1.74204 -1.43908,-1.9314 -1.28759,-0.41656 -2.72666,-0.34082 -4.16574,-0.45443 z"
       class="st30"
       inkscape:connector-curvature="0"
       style="fill:#ffed00;stroke-width:0.37870368;enable-background:new" />
    <path
       id="path1604-7"
       d="m 321.05256,288.51936 c -0.11361,4.39296 -3.40834,7.57407 -7.68769,7.42259 -4.43083,-0.15148 -7.57407,-3.52195 -7.42259,-7.91492 0.15148,-4.35509 3.4462,-7.42259 7.83917,-7.34685 4.31722,0.11361 7.38472,3.40833 7.27111,7.83918 z m -1.70417,-0.26511 c -0.0379,-3.48406 -2.57518,-6.17287 -5.86991,-6.135 -3.25685,0.0379 -5.8699,2.80242 -5.83203,6.21076 0.0379,3.48406 2.57518,6.09712 5.94565,6.05925 3.37046,0 5.79416,-2.57518 5.75629,-6.13501 z"
       class="st30"
       inkscape:connector-curvature="0"
       style="fill:#ffed00;stroke-width:0.37870368;enable-background:new" />
    <path
       id="path1606-1"
       d="m 283.2958,310.25694 c 0,4.39296 -3.14324,7.57407 -7.49833,7.64981 -4.31722,0.0379 -7.53621,-3.14324 -7.57408,-7.5362 -0.0379,-4.50657 3.10537,-7.68769 7.53621,-7.68769 4.39296,-0.0379 7.5362,3.14326 7.5362,7.57408 z m -13.36824,0.0757 c 0,3.52194 2.49945,6.09713 5.90778,6.05926 3.37046,-0.0379 5.83203,-2.65093 5.79416,-6.17287 -0.0379,-3.48408 -2.61305,-6.17287 -5.90777,-6.09713 -3.37047,0 -5.83204,2.65092 -5.79417,6.21074 z"
       class="st30"
       inkscape:connector-curvature="0"
       style="fill:#ffed00;stroke-width:0.37870368;enable-background:new" />
    <path
       id="path1608-9"
       d="m 265.00441,310.25694 c 0,4.43083 -3.14324,7.61194 -7.49833,7.64981 -4.31722,0.0379 -7.57407,-3.21898 -7.61194,-7.5362 -0.0379,-4.43083 3.21898,-7.68769 7.61194,-7.68769 4.35509,-0.0379 7.49833,3.14326 7.49833,7.57408 z m -1.70416,0 c 0,-3.52195 -2.49945,-6.17287 -5.83204,-6.17287 -3.25685,0 -5.86991,2.72666 -5.90778,6.17287 0,3.48407 2.53732,6.09713 5.86991,6.135 3.4462,-0.0379 5.86991,-2.57519 5.86991,-6.135 z"
       class="st30"
       inkscape:connector-curvature="0"
       style="fill:#ffed00;stroke-width:0.37870368;enable-background:new" />
    <path
       id="path1610-3"
       d="m 335.822,292.72296 c 0,-3.25685 0,-6.51371 0,-9.77056 0,-0.37869 -0.0757,-0.83315 0.0379,-1.17397 0.0757,-0.30296 0.41658,-0.53018 0.6438,-0.75741 0.26509,0.2651 0.75741,0.53019 0.75741,0.79528 0.0379,4.27935 0.0379,8.59658 0,12.87592 0,0.26509 -0.45445,0.75741 -0.6438,0.71954 -0.60593,-0.11361 -1.43908,-0.18935 -1.77991,-0.60593 -1.43907,-1.81778 -2.68879,-3.78704 -4.01426,-5.68056 -1.24972,-1.81777 -2.53731,-3.59768 -3.78703,-5.41546 -0.15149,0.0379 -0.2651,0.0757 -0.41658,0.0757 0,0.79528 0,1.59056 0,2.38583 0,2.76454 0,5.52908 -0.0379,8.29361 0,0.30297 -0.3787,0.6438 -0.60592,0.94676 -0.2651,-0.26509 -0.79528,-0.49231 -0.79528,-0.7574 -0.0379,-4.46871 -0.0379,-8.97528 -0.0379,-13.48186 1.28759,-0.45444 2.08287,-0.18935 2.8024,0.90889 2.12075,3.21898 4.39297,6.32435 6.58945,9.4676 0.30296,0.41657 0.60592,0.83314 0.90889,1.24972 0.15148,0.0379 0.26509,0 0.3787,-0.0757 z"
       class="st30"
       inkscape:connector-curvature="0"
       style="fill:#ffed00;stroke-width:0.37870368;enable-background:new" />
    <path
       id="path1612-5"
       d="m 244.63016,295.37388 c -0.60593,0 -1.0225,0 -1.51482,0 0,-4.77166 0,-9.42972 0,-14.50435 2.31009,0.18935 4.62019,0.2651 6.85454,0.6438 1.62842,0.30296 2.34796,1.47694 2.46157,3.10537 0.11361,1.62842 -0.49231,2.91602 -1.96926,3.67342 -0.45444,0.22724 -0.98463,0.41658 -1.59055,0.68167 1.28759,2.15861 2.53731,4.20362 3.86277,6.32435 -1.21185,0.41658 -1.93139,0.15148 -2.49944,-0.90889 -0.83315,-1.55268 -1.85565,-3.02963 -2.72667,-4.58231 -0.56805,-1.0225 -1.43907,-1.06037 -2.27222,-0.75741 -0.34083,0.11361 -0.53018,1.0225 -0.56805,1.59056 -0.0757,1.55268 -0.0379,3.10537 -0.0379,4.73379 z m 0.11361,-7.72555 c 1.62842,-0.15148 3.14324,-0.11361 4.4687,-0.53019 0.68167,-0.22722 1.28759,-1.28759 1.47694,-2.08287 0.22723,-1.06037 -0.45444,-1.96926 -1.51481,-2.19648 -1.4012,-0.26509 -2.87815,-0.26509 -4.43083,-0.41657 0,1.81778 0,3.33259 0,5.22611 z"
       class="st30"
       inkscape:connector-curvature="0"
       style="fill:#ffed00;stroke-width:0.37870368;enable-background:new" />
    <path
       id="path1614-0"
       d="m 244.32719,309.08296 c 0,-1.70416 0.0379,-3.29473 0,-4.92315 -0.0379,-1.0225 0.41658,-1.32546 1.47695,-1.0225 0,4.69592 0,9.39185 0,14.12565 -0.98463,0.34083 -1.51482,0.15148 -1.47695,-0.98462 0.0379,-1.47695 -0.0379,-2.95389 0,-4.43084 0.0379,-0.90888 -0.34083,-1.21186 -1.21185,-1.21186 -1.81778,0.0379 -3.67343,0.0379 -5.4912,0 -1.0225,-0.0379 -1.24973,0.41659 -1.24973,1.32547 0.0379,1.7799 0,3.52194 0,5.37759 -0.56805,0 -1.0225,0 -1.55268,0 0,-4.69592 0,-9.39184 0,-14.23926 0.3787,-0.0379 0.83315,-0.0757 1.47694,-0.11361 0,2.08288 0,4.05213 0,6.09713 2.76454,0 5.30186,0 8.02852,0 z"
       class="st30"
       inkscape:connector-curvature="0"
       style="fill:#ffed00;stroke-width:0.37870368;enable-background:new" />
    <path
       id="path1616-6"
       d="m 272.27552,295.26027 c 2.045,-4.62018 4.01426,-9.12676 6.02139,-13.59546 0.41658,-0.87102 1.59056,-0.94676 1.93139,-0.0757 1.96926,4.54444 3.90065,9.12676 5.86991,13.70907 -1.24972,0.45445 -2.00713,0.18936 -2.27222,-0.98463 -0.41658,-1.96924 -1.59056,-2.76452 -3.59769,-2.4237 -0.60592,0.11361 -1.28759,0.11361 -1.93139,0 -2.12074,-0.34082 -3.52194,0.34083 -3.97639,2.53733 -0.15148,1.09823 -0.87101,1.28759 -2.045,0.83314 z m 7.19537,-11.77768 c -0.11361,0 -0.26509,-0.0379 -0.3787,-0.0379 -0.94676,2.27222 -1.93139,4.54444 -2.95389,6.96814 2.12074,0 4.01426,0 6.09713,0 -0.98463,-2.4237 -1.89352,-4.69592 -2.76454,-6.93027 z"
       class="st30"
       inkscape:connector-curvature="0"
       style="fill:#ffed00;stroke-width:0.37870368;enable-background:new" />
    <path
       id="path1618-2"
       d="m 354.49209,295.26027 c -1.21185,0.49232 -1.93139,0.22722 -2.27222,-0.90889 -0.0757,-0.26509 -0.26509,-0.53017 -0.34083,-0.83314 -0.2651,-1.40121 -1.13611,-1.77991 -2.46158,-1.62843 -0.98463,0.11361 -1.96926,0.15148 -2.95389,0 -1.96925,-0.30295 -3.18111,0.3787 -3.63555,2.38583 -0.22722,1.13611 -0.94676,1.51482 -2.19648,1.0225 1.28759,-2.87815 2.53731,-5.75629 3.78703,-8.63444 0.71954,-1.62842 1.40121,-3.25685 2.15862,-4.84741 0.15148,-0.34083 0.68166,-0.68166 1.06037,-0.71954 0.30296,-0.0379 0.83314,0.30297 0.98463,0.60593 2.045,4.50657 3.93851,9.01315 5.8699,13.55759 z m -6.62731,-11.73981 c -0.11361,-0.0379 -0.26509,-0.0379 -0.37871,-0.0757 -0.94675,2.27222 -1.93138,4.54444 -2.95388,6.93027 2.12074,0 4.01425,0 6.05925,0 -0.94675,-2.42371 -1.85564,-4.62018 -2.72666,-6.85453 z"
       class="st30"
       inkscape:connector-curvature="0"
       style="fill:#ffed00;stroke-width:0.37870368;enable-background:new" />
    <path
       id="path1620-4"
       d="m 157.07387,281.09675 c 3.10537,0 6.02138,0 8.89953,0 0.41658,1.06038 0,1.40121 -0.98463,1.40121 -2.00713,-0.0379 -4.01426,0 -6.17287,0 0,1.62842 0,3.0675 0,4.73379 1.89352,0 3.74917,-0.0379 5.60482,0.0379 0.41657,0 0.79527,0.45445 1.17398,0.68167 -0.37871,0.26509 -0.75741,0.68167 -1.17398,0.71954 -1.85565,0.0757 -3.7113,0.0379 -5.64269,0.0379 0,1.89352 0,3.48407 0,5.37759 1.24972,0 2.46158,0 3.67343,0 1.09824,0 2.15861,-0.0379 3.25685,0.0379 0.26509,0 0.53018,0.41658 0.75741,0.60593 -0.22723,0.26509 -0.45445,0.71953 -0.68167,0.71953 -2.65093,0.0379 -5.33972,0.0757 -7.99065,0 -0.22722,0 -0.68166,-0.56805 -0.68166,-0.87101 -0.0379,-4.43084 -0.0379,-8.86167 -0.0379,-13.48186 z"
       class="st30"
       inkscape:connector-curvature="0"
       style="fill:#ffed00;stroke-width:0.37870368;enable-background:new" />
    <path
       id="path1622-4"
       d="m 231.45127,288.67083 c 0,1.85566 0,3.52194 0,5.30186 2.49944,0 4.96102,0 7.46046,0 0.30296,0.83314 0.45444,1.47694 -0.68167,1.47694 -2.76453,0 -5.52907,0 -8.40722,0 0,-4.8474 0,-9.54334 0,-14.35287 2.91602,0 5.83204,0 8.78593,0 0.41657,0.98462 0.0379,1.36334 -0.94676,1.36334 -2.045,-0.0379 -4.12787,0 -6.24861,0 0,1.66629 0,3.0675 0,4.73379 1.89351,0 3.74916,-0.0379 5.56694,0.0379 0.41657,0 0.79528,0.41658 1.21185,0.60593 -0.41657,0.26509 -0.83315,0.71954 -1.24972,0.75741 -1.77991,0.15148 -3.59768,0.0757 -5.4912,0.0757 z"
       class="st30"
       inkscape:connector-curvature="0"
       style="fill:#ffed00;stroke-width:0.37870368;enable-background:new" />
    <path
       id="path1624-6"
       d="m 205.73729,315.9375 c 0.45444,-0.3787 0.83315,-0.68167 1.24972,-1.06037 1.09824,1.21186 2.46157,1.70416 4.01426,1.40121 1.24972,-0.22722 2.19648,-0.87102 2.38583,-2.23435 0.18935,-1.36334 -0.60592,-2.12075 -1.77991,-2.5752 -1.09824,-0.41656 -2.23435,-0.79528 -3.33259,-1.24972 -1.55268,-0.68167 -2.38583,-1.85565 -2.31009,-3.59769 0.0757,-1.70416 0.94676,-2.84027 2.49944,-3.52194 2.27223,-0.98462 4.7338,-0.53019 6.28648,1.21186 -0.30296,0.30296 -0.60592,0.6438 -0.87101,0.94676 -0.0379,-0.18935 -0.0757,-0.34083 -0.11361,-0.5302 -1.40121,-0.15147 -2.76454,-0.45443 -4.16575,-0.41656 -1.09824,0.0379 -1.81777,0.94676 -1.93138,2.12074 -0.11362,1.13611 0.53018,1.89352 1.51481,2.31009 1.13611,0.49232 2.31009,0.83315 3.4462,1.32547 1.85565,0.79527 2.49945,1.85564 2.46158,3.78703 -0.0379,1.74204 -0.98463,2.95389 -2.76454,3.59769 -2.4237,0.90889 -4.96102,0.34083 -6.58944,-1.51482 z"
       class="st30"
       inkscape:connector-curvature="0"
       style="fill:#ffed00;stroke-width:0.37870368;enable-background:new" />
    <path
       id="path1626-4"
       d="m 230.73173,304.87935 c -0.45444,0.34083 -0.87102,0.60592 -1.21185,0.87101 -3.0675,-2.23435 -5.86991,-2.12074 -7.91491,0.30297 -2.12074,2.49944 -1.96926,6.55158 0.30296,8.78592 1.6663,1.6663 5.33973,2.46158 8.02852,-0.34083 0.18935,0.11361 0.37871,0.22722 0.56806,0.34083 0.22722,0.11361 0.41657,0.2651 0.60592,0.37871 -2.23435,3.14324 -7.08176,3.48407 -10.14925,0.94676 -3.25686,-2.72667 -3.52195,-8.21787 -0.56806,-11.28537 2.84028,-2.91602 7.61194,-2.99176 10.33861,0 z"
       class="st30"
       inkscape:connector-curvature="0"
       style="fill:#ffed00;stroke-width:0.37870368;enable-background:new" />
    <path
       id="path1628-4"
       d="m 297.00487,281.02101 c 0.41658,1.06037 0.11362,1.47695 -0.83314,1.47695 -0.83315,-0.0379 -1.6663,0.0379 -2.49945,0 -1.06037,-0.0757 -1.36333,0.41657 -1.36333,1.4012 0.0379,3.40834 0.0379,6.81667 0,10.225 0,0.56806 0.18935,1.47695 -0.83315,1.32547 -0.30296,-0.0379 -0.6438,-0.83315 -0.68167,-1.2876 -0.0379,-3.37045 -0.0757,-6.70305 0,-10.07351 0.0379,-1.24973 -0.41657,-1.66629 -1.62842,-1.59055 -0.71954,0.0757 -1.47695,0.0757 -2.19648,-0.0379 -0.37871,-0.0757 -0.68167,-0.49232 -0.98463,-0.75741 0.30296,-0.22722 0.60592,-0.6438 0.90889,-0.6438 3.37046,-0.0379 6.70305,-0.0379 10.11138,-0.0379 z"
       class="st30"
       inkscape:connector-curvature="0"
       style="fill:#ffed00;stroke-width:0.37870368;enable-background:new" />
    <path
       id="path1630-7"
       d="m 220.12803,288.89805 c 0,-1.51481 -0.0757,-3.0675 0.0379,-4.58231 0.11361,-1.40121 -0.34084,-2.00713 -1.81778,-1.85565 -0.79528,0.0757 -1.59056,0.0757 -2.34796,-0.0379 -0.2651,-0.0379 -0.49232,-0.41658 -0.75741,-0.6438 0.26509,-0.26509 0.53018,-0.71953 0.83315,-0.71953 3.14324,-0.0379 6.32435,-0.0379 9.46759,0 0.30296,0 0.60593,0.41657 0.94676,0.64379 -0.34083,0.26509 -0.6438,0.68167 -0.98463,0.75741 -0.68167,0.11361 -1.36333,0.11361 -2.045,0.0379 -1.28759,-0.11361 -1.81778,0.30296 -1.77991,1.70417 0.11361,3.29472 0.0757,6.58944 0,9.92203 0,0.45445 -0.3787,1.24972 -0.64379,1.28759 -1.06037,0.18936 -0.79528,-0.71953 -0.79528,-1.32546 -0.15148,-1.70416 -0.11361,-3.4462 -0.11361,-5.18824 z"
       class="st30"
       inkscape:connector-curvature="0"
       style="fill:#ffed00;stroke-width:0.37870368;enable-background:new" />
    <path
       id="path1632-8"
       d="m 287.3858,303.0237 c 0.53019,0.0379 0.94676,0.0379 1.51482,0.0757 0,4.31722 0,8.52083 0,12.87592 2.19648,0 4.27935,0 6.36222,0 0.34083,0.87102 0.41657,1.47695 -0.68167,1.47695 -2.34796,0 -4.7338,0 -7.19537,0 0,-4.84741 0,-9.54334 0,-14.42861 z"
       class="st30"
       inkscape:connector-curvature="0"
       style="fill:#ffed00;stroke-width:0.37870368;enable-background:new" />
    <path
       id="path1636-1"
       d="m 301.89015,281.1725 c 0,4.73379 0,9.39185 0,14.12564 -1.06037,0.41658 -1.55268,0.18935 -1.55268,-1.0225 0.0379,-3.97638 0.0379,-7.99064 0,-11.96703 0,-1.06037 0.34083,-1.51482 1.55268,-1.13611 z"
       class="st30"
       inkscape:connector-curvature="0"
       style="fill:#ffed00;stroke-width:0.37870368;enable-background:new" />
    <path
       id="path1638-1"
       d="m 194.79275,295.33601 c -1.21185,0.41658 -1.55268,-0.0379 -1.55268,-1.09824 0.0379,-4.01425 0.0379,-7.99065 0,-12.0049 0,-1.13612 0.45444,-1.40121 1.55268,-1.06037 0,4.69592 0,9.39185 0,14.16351 z"
       class="st30"
       inkscape:connector-curvature="0"
       style="fill:#ffed00;stroke-width:0.37870368;enable-background:new" />
    <path
       id="path1632-7"
       d="m 357.54135,281.14713 c 0.53019,0.0379 0.94676,0.0379 1.51482,0.0757 0,4.31723 0,8.52085 0,12.87593 2.19648,0 4.27935,0 6.36221,0 0.34084,0.87102 0.41658,1.47694 -0.68166,1.47694 -2.34796,0 -4.73379,0 -7.19537,0 0,-4.84741 0,-9.54333 0,-14.42861 z"
       class="st30"
       inkscape:connector-curvature="0"
       style="fill:#ffed00;stroke-width:0.37870368;enable-background:new" />
  </g>
  <style
     id="style1390"
     type="text/css">
	.st0{fill:#181818;enable-background:new    ;}
	.st1{fill:#4E460D;enable-background:new    ;}
	.st2{fill:#3F3912;enable-background:new    ;}
	.st3{fill:#3F3910;enable-background:new    ;}
	.st4{fill:#3C3A14;enable-background:new    ;}
	.st5{fill:#343013;enable-background:new    ;}
	.st6{fill:#343014;enable-background:new    ;}
	.st7{fill:#363019;enable-background:new    ;}
	.st8{fill:#25221B;enable-background:new    ;}
	.st9{fill:#252317;enable-background:new    ;}
	.st10{fill:#D9C101;enable-background:new    ;}
	.st11{fill:#CEB901;enable-background:new    ;}
	.st12{fill:#C1AE02;enable-background:new    ;}
	.st13{fill:#C5AC02;enable-background:new    ;}
	.st14{fill:#BEA300;enable-background:new    ;}
	.st15{fill:#B9A501;enable-background:new    ;}
	.st16{fill:#AE9800;enable-background:new    ;}
	.st17{fill:#B49F00;enable-background:new    ;}
	.st18{fill:#9F9000;enable-background:new    ;}
	.st19{fill:#9A9300;enable-background:new    ;}
	.st20{fill:#968400;enable-background:new    ;}
	.st21{fill:#8A7C01;enable-background:new    ;}
	.st22{fill:#928505;enable-background:new    ;}
	.st23{fill:#8A7B08;enable-background:new    ;}
	.st24{fill:#7D7200;enable-background:new    ;}
	.st25{fill:#6E6500;enable-background:new    ;}
	.st26{fill:#665B01;enable-background:new    ;}
	.st27{fill:#594F0A;enable-background:new    ;}
	.st28{fill:#595006;enable-background:new    ;}
	.st29{fill:#645B06;enable-background:new    ;}
	.st30{fill:#FFED00;enable-background:new    ;}
	.st31{fill:#FCEA0A;enable-background:new    ;}
	.st32{fill:#FFEA00;enable-background:new    ;}
	.st33{fill:#F2E600;enable-background:new    ;}
	.st34{fill:#F8E100;enable-background:new    ;}
	.st35{fill:#EED500;enable-background:new    ;}
	.st36{fill:#F9DF0A;enable-background:new    ;}
	.st37{fill:#E3CD00;enable-background:new    ;}
	.st38{fill:#FFFFFF;}
</style>
</svg>
