<?xml version="1.0" encoding="UTF-8" standalone="no"?>
<!-- Created with Inkscape (http://www.inkscape.org/) -->

<svg
   xmlns:dc="http://purl.org/dc/elements/1.1/"
   xmlns:cc="http://creativecommons.org/ns#"
   xmlns:rdf="http://www.w3.org/1999/02/22-rdf-syntax-ns#"
   xmlns:svg="http://www.w3.org/2000/svg"
   xmlns="http://www.w3.org/2000/svg"
   xmlns:sodipodi="http://sodipodi.sourceforge.net/DTD/sodipodi-0.dtd"
   xmlns:inkscape="http://www.inkscape.org/namespaces/inkscape"
   width="500px"
   height="500px"
   viewBox="0 0 500 500"
   version="1.1"
   id="SVGRoot"
   sodipodi:docname="font.svg"
   inkscape:export-filename="C:\Users\Slvnm\circle.png"
   inkscape:export-xdpi="250"
   inkscape:export-ydpi="250"
   inkscape:version="0.92.2 (5c3e80d, 2017-08-06)">
  <sodipodi:namedview
     id="base"
     pagecolor="#ffffff"
     bordercolor="#666666"
     borderopacity="1.0"
     inkscape:pageopacity="0.0"
     inkscape:pageshadow="2"
     inkscape:zoom="1.4481547"
     inkscape:cx="289.6281"
     inkscape:cy="270.4616"
     inkscape:document-units="px"
     inkscape:current-layer="layer1"
     showgrid="false"
     inkscape:window-width="1920"
     inkscape:window-height="1017"
     inkscape:window-x="-8"
     inkscape:window-y="-8"
     inkscape:window-maximized="1"
     inkscape:snap-nodes="false"
     inkscape:snap-bbox="true"
     inkscape:bbox-nodes="true" />
  <defs
     id="defs831" />
  <metadata
     id="metadata834">
    <rdf:RDF>
      <cc:Work
         rdf:about="">
        <dc:format>image/svg+xml</dc:format>
        <dc:type
           rdf:resource="http://purl.org/dc/dcmitype/StillImage" />
        <dc:title></dc:title>
      </cc:Work>
    </rdf:RDF>
  </metadata>
  <g
     id="layer1"
     inkscape:groupmode="layer"
     inkscape:label="Calque 1"
     style="display:inline">
    <path
       style="stroke:none;stroke-width:0.58445799;stroke-opacity:1"
       id="path2738"
       d="m 175.49533,170.46221 c 0,6.48748 0,12.97497 0,19.63779 -15.19591,0 -30.33337,0 -45.58773,0 0,14.72834 0,29.28135 0,44.06813 13.2672,0 26.47595,0 39.6847,0 0,6.72127 0,13.20875 0,19.81313 -13.26719,0 -26.35905,0 -39.74314,0 0,20.74826 0,41.26274 0,62.011 -7.89019,0 -15.54659,0 -23.55366,0 0,-0.99358 0,-1.98716 0,-2.98074 0,-46.46441 0,-92.98727 0,-139.45168 0,-1.05203 -0.0585,-2.10405 -0.0585,-3.09763 23.0861,0 46.17219,0 69.25828,0 z"
       inkscape:connector-curvature="0" />
    <path
       style="stroke:none;stroke-width:0.58445799;stroke-opacity:1"
       id="path2740"
       d="m 74.442538,170.46221 c 0,1.05203 -0.05845,2.10405 -0.05845,3.09763 0,46.40596 0,92.81193 0,139.2179 0,1.05202 0,2.0456 0,3.21452 -7.831737,0 -15.488137,0 -23.495212,0 0,-48.51002 0,-97.02003 0,-145.5885 7.890183,0.0584 15.721921,0.0584 23.553658,0.0584 z"
       inkscape:connector-curvature="0" />
    <path
       style="stroke:none;stroke-width:0.58445799;stroke-opacity:1"
       id="path2742"
       d="m 430.61125,264.73529 c -2.45472,0 -4.50033,0 -6.72127,0 0,-6.83816 0,-13.55943 0,-20.39759 9.8189,0 19.5209,0 29.39824,0 0.0584,0.87669 0.11689,1.69493 0.11689,2.45473 0,18.93644 0,37.81443 0.0584,56.75087 0,1.81182 -0.64291,2.63006 -2.27939,3.33141 -18.99488,8.00707 -38.69112,11.92294 -59.26404,10.28646 -25.94994,-2.0456 -46.52286,-13.2672 -59.96539,-36.1195 -7.6564,-13.03342 -9.99423,-27.35264 -8.64998,-42.13943 2.86384,-30.09958 18.93644,-50.67251 46.5813,-62.24477 12.39051,-5.20168 25.48237,-5.90303 38.74957,-4.9679 14.37767,0.99358 27.58642,6.07837 40.67828,11.57227 0.58445,0.23378 1.22736,1.11047 1.2858,1.63648 0.0584,7.36417 0.0584,14.72835 0.0584,22.44319 -2.68851,-1.46114 -5.08479,-2.8054 -7.53951,-4.0912 -13.85165,-7.13039 -28.4631,-11.33849 -44.18502,-11.39694 -28.22933,-0.11689 -51.08163,22.56008 -52.48433,49.38671 -1.57804,29.74891 18.41042,53.18567 48.15934,55.87418 12.03983,1.05203 23.37832,-1.46114 34.65836,-5.02634 0.58445,-0.17533 1.34425,-1.05202 1.34425,-1.57803 0.0584,-8.53309 0,-17.00773 0,-25.7746 z"
       inkscape:connector-curvature="0" />
  </g>
  <g
     inkscape:groupmode="layer"
     id="layer2"
     inkscape:label="Calque 2"
     style="display:inline" />
  <style
     id="style1390"
     type="text/css">
	.st0{fill:#181818;enable-background:new    ;}
	.st1{fill:#4E460D;enable-background:new    ;}
	.st2{fill:#3F3912;enable-background:new    ;}
	.st3{fill:#3F3910;enable-background:new    ;}
	.st4{fill:#3C3A14;enable-background:new    ;}
	.st5{fill:#343013;enable-background:new    ;}
	.st6{fill:#343014;enable-background:new    ;}
	.st7{fill:#363019;enable-background:new    ;}
	.st8{fill:#25221B;enable-background:new    ;}
	.st9{fill:#252317;enable-background:new    ;}
	.st10{fill:#D9C101;enable-background:new    ;}
	.st11{fill:#CEB901;enable-background:new    ;}
	.st12{fill:#C1AE02;enable-background:new    ;}
	.st13{fill:#C5AC02;enable-background:new    ;}
	.st14{fill:#BEA300;enable-background:new    ;}
	.st15{fill:#B9A501;enable-background:new    ;}
	.st16{fill:#AE9800;enable-background:new    ;}
	.st17{fill:#B49F00;enable-background:new    ;}
	.st18{fill:#9F9000;enable-background:new    ;}
	.st19{fill:#9A9300;enable-background:new    ;}
	.st20{fill:#968400;enable-background:new    ;}
	.st21{fill:#8A7C01;enable-background:new    ;}
	.st22{fill:#928505;enable-background:new    ;}
	.st23{fill:#8A7B08;enable-background:new    ;}
	.st24{fill:#7D7200;enable-background:new    ;}
	.st25{fill:#6E6500;enable-background:new    ;}
	.st26{fill:#665B01;enable-background:new    ;}
	.st27{fill:#594F0A;enable-background:new    ;}
	.st28{fill:#595006;enable-background:new    ;}
	.st29{fill:#645B06;enable-background:new    ;}
	.st30{fill:#FFED00;enable-background:new    ;}
	.st31{fill:#FCEA0A;enable-background:new    ;}
	.st32{fill:#FFEA00;enable-background:new    ;}
	.st33{fill:#F2E600;enable-background:new    ;}
	.st34{fill:#F8E100;enable-background:new    ;}
	.st35{fill:#EED500;enable-background:new    ;}
	.st36{fill:#F9DF0A;enable-background:new    ;}
	.st37{fill:#E3CD00;enable-background:new    ;}
	.st38{fill:#FFFFFF;}
</style>
  <style
     id="style2736"
     type="text/css">
	.st0{fill:#FFFFFF;}
	.st1{fill:#BD1717;}
</style>
</svg>
